<svg width="32" height="32" viewBox="0 0 32 32" fill="none" xmlns="http://www.w3.org/2000/svg">
<path fill-rule="evenodd" clip-rule="evenodd" d="M15.7838 6.10119C15.6867 6.19826 15.6826 6.22411 15.6826 6.74008C15.6826 7.12074 15.6687 7.27778 15.6348 7.27778C15.5713 7.27778 14.5767 8.26271 14.5475 8.35438C14.5264 8.42086 14.3617 8.42709 12.2081 8.44287C9.6041 8.46196 9.61127 8.46121 9.05576 8.76788C8.80256 8.90766 8.72329 8.93276 8.59123 8.91503C8.37116 8.88552 8.20299 8.7537 8.12022 8.5458C8.02307 8.30182 7.94364 8.22581 7.78586 8.22581C7.64196 8.22581 7.48009 8.37762 7.48009 8.51257C7.48009 8.76454 7.77984 9.2332 8.02492 9.36444C8.08902 9.39874 8.02558 9.65334 7.35331 12.0601C6.94499 13.5218 6.60044 14.7595 6.58763 14.8105C6.56751 14.8906 6.53734 14.9033 6.3657 14.9033C6.20021 14.9033 6.15281 14.9214 6.08166 15.0119C5.98006 15.141 5.97445 15.3079 6.05821 15.707C6.25482 16.6435 7.02471 17.407 7.97472 17.6077C9.42117 17.9134 10.9013 16.7601 10.9013 15.3274C10.9013 14.9992 10.8228 14.9033 10.5541 14.9033C10.3847 14.9033 10.3688 14.8938 10.3291 14.7693C10.2417 14.4952 8.88153 9.59354 8.88153 9.55265C8.88153 9.52928 8.93516 9.49836 9.00074 9.48398C9.06632 9.46955 9.21005 9.40026 9.32018 9.32994C9.72524 9.07138 9.67145 9.07641 12.2024 9.05984L14.5135 9.04475L14.6235 9.2034C14.6839 9.29066 14.8079 9.43476 14.8989 9.52363L15.0644 9.68521V14.1475V18.6098L13.1786 18.6217C11.3089 18.6335 11.2908 18.6344 11.0531 18.7303C10.7396 18.8568 10.3366 19.2315 10.1882 19.5345C9.75496 20.4193 10.1113 21.4126 11.0157 21.841L11.2928 21.9723L16.2917 21.9834L21.2905 21.9945L21.3925 21.8925C21.4486 21.8364 21.4945 21.7458 21.4945 21.6912C21.4945 21.5439 21.3442 21.3746 21.2132 21.3744C20.8456 21.3736 20.4763 21.1017 20.3556 20.7428C20.2653 20.4745 20.2658 20.0467 20.3568 19.8311C20.5165 19.4524 20.7154 19.2943 21.114 19.2294C21.3781 19.1864 21.4408 19.1392 21.4775 18.9552C21.4987 18.8494 21.4836 18.8044 21.3979 18.7187L21.2921 18.6129H19.1056H16.9192V14.1493V9.68562L17.1072 9.50187C17.2106 9.4008 17.3334 9.2567 17.38 9.18168L17.4648 9.0452L19.7579 9.06148C21.3764 9.07294 22.1045 9.0924 22.2331 9.12756C22.3332 9.15497 22.5187 9.24054 22.6453 9.31774C22.7718 9.39494 22.9263 9.47037 22.9887 9.48534C23.051 9.5003 23.102 9.53113 23.102 9.55384C23.102 9.59395 21.7403 14.5002 21.6545 14.7693C21.6148 14.8938 21.5989 14.9033 21.4294 14.9033C21.1628 14.9033 21.0823 14.9998 21.0823 15.3198C21.0823 16.5058 22.1209 17.5678 23.3617 17.6505C24.5632 17.7306 25.6779 16.8856 25.9253 15.707C26.0091 15.3079 26.0035 15.141 25.9019 15.0119C25.8307 14.9214 25.7833 14.9033 25.6178 14.9033C25.446 14.9033 25.416 14.8907 25.3958 14.8101C25.383 14.759 25.0387 13.5211 24.6307 12.0594C23.9614 9.66142 23.8958 9.39808 23.9592 9.36411C24.2037 9.23324 24.5035 8.7643 24.5035 8.51257C24.5035 8.37762 24.3416 8.22581 24.1977 8.22581C24.0399 8.22581 23.9605 8.30182 23.8633 8.5458C23.7811 8.75238 23.6125 8.88548 23.3967 8.91446C23.2713 8.93127 23.1795 8.90283 22.9143 8.765C22.3405 8.46674 22.2979 8.46241 19.7342 8.44304C17.6205 8.427 17.4571 8.4207 17.436 8.35433C17.4069 8.26266 16.4122 7.27778 16.3488 7.27778C16.3149 7.27778 16.3009 7.12074 16.3009 6.74008C16.3009 6.22411 16.2968 6.19826 16.1997 6.10119C16.1441 6.04555 16.0505 6 15.9918 6C15.933 6 15.8395 6.04555 15.7838 6.10119ZM15.4844 8.24045C15.2533 8.47519 15.0644 8.69282 15.0644 8.72407C15.0644 8.81631 15.8971 9.62725 15.9918 9.62725C16.0865 9.62725 16.9192 8.81631 16.9192 8.72407C16.9192 8.62815 16.0895 7.81363 15.9918 7.81363C15.9354 7.81363 15.7553 7.96511 15.4844 8.24045ZM15.6826 14.4189L15.6826 18.6129H15.9918H16.3009L16.3008 14.4189L16.3007 10.2249H15.9916H15.6825L15.6826 14.4189ZM7.83985 12.6095C7.50495 13.8144 7.23138 14.8234 7.23187 14.8517C7.23258 14.8918 7.50895 14.9033 8.4738 14.9033H9.71485L9.6872 14.7899C9.61242 14.4834 8.49758 10.5072 8.47491 10.4661C8.46052 10.4401 8.17475 11.4046 7.83985 12.6095ZM23.4819 10.5341C23.4323 10.6904 22.3424 14.6036 22.2966 14.7899L22.2687 14.9033H23.5097C24.5753 14.9033 24.7508 14.8947 24.7508 14.8425C24.7508 14.7993 23.8462 11.5051 23.5394 10.431C23.533 10.4083 23.5071 10.4547 23.4819 10.5341ZM6.67773 15.6555C6.77257 16.1004 7.21658 16.6487 7.64497 16.8499C8.11441 17.0704 8.63447 17.0967 9.09777 16.9233C9.68728 16.7028 10.0498 16.2944 10.2599 15.6143L10.2885 15.5215H8.46885H6.64916L6.67773 15.6555ZM21.7246 15.6349C21.7748 15.8569 21.9823 16.2558 22.1367 16.4266C22.9953 17.377 24.6174 17.1738 25.157 16.0483C25.2253 15.9059 25.2931 15.7292 25.3078 15.6555L25.3344 15.5215H23.5167H21.699L21.7246 15.6349ZM11.2722 19.3169C10.5651 19.6366 10.3981 20.5044 10.9395 21.0458C11.2898 21.3962 10.9731 21.3746 15.7739 21.3746H20.0136L19.9119 21.2249C19.856 21.1426 19.7776 20.9664 19.7377 20.8334L19.6652 20.5914H15.7779C11.9454 20.5914 11.8894 20.5903 11.8081 20.509C11.697 20.3979 11.6992 20.1748 11.8124 20.0723C11.8962 19.9964 12.0299 19.9934 15.7886 19.9829L19.678 19.9719L19.7241 19.7974C19.7494 19.7014 19.8149 19.5416 19.8698 19.4424C19.9245 19.3432 19.9694 19.2551 19.9694 19.2466C19.9694 19.2382 18.0543 19.2316 15.7135 19.2321C11.5228 19.233 11.4549 19.2343 11.2722 19.3169ZM11.4303 22.6903C11.1301 22.7863 10.9676 22.8891 10.7288 23.1343C10.0978 23.7819 10.0939 24.7862 10.7198 25.4553C10.9332 25.6835 11.2852 25.8809 11.5937 25.9454C11.7464 25.9774 13.2743 25.9911 16.6758 25.9911H21.5395L21.6406 25.8899C21.855 25.6755 21.7142 25.4016 21.3657 25.3554C21.113 25.3219 20.9782 25.2576 20.8269 25.0983C20.3698 24.617 20.4717 23.6056 21.0051 23.3298C21.0736 23.2943 21.235 23.2484 21.3636 23.2277C21.7211 23.1703 21.8436 22.9578 21.6563 22.7198L21.5709 22.6112L16.6174 22.6134C11.9528 22.6155 11.6502 22.6199 11.4303 22.6903ZM11.5195 23.3151C10.8137 23.6343 10.6466 24.5038 11.1871 25.0444C11.5353 25.3925 11.2449 25.3728 16.0365 25.3728H20.25L20.134 25.1564C20.0702 25.0374 19.9949 24.8612 19.9666 24.7649L19.9151 24.5897H16.0265C12.1928 24.5897 12.1367 24.5885 12.0554 24.5072C11.9326 24.3845 11.9454 24.1639 12.0816 24.0568C12.1897 23.9718 12.2074 23.9714 16.0576 23.9714H19.925L19.9712 23.7962C19.9966 23.6999 20.0623 23.5399 20.1171 23.4407C20.1719 23.3414 20.2167 23.2534 20.2167 23.2449C20.2167 23.2364 18.3016 23.2299 15.9609 23.2304C11.7701 23.2313 11.7022 23.2325 11.5195 23.3151Z" fill="#741102"/>
</svg>
