<svg width="42" height="42" viewBox="0 0 42 42" fill="none" xmlns="http://www.w3.org/2000/svg">
<path fill-rule="evenodd" clip-rule="evenodd" d="M20.1533 8.52494L19.4095 9.04988H13.6159H7.82253L7.87917 10.0623L7.936 11.0746L8.86432 11.1208C9.60429 11.1577 9.7696 11.2135 9.67994 11.3962C9.61811 11.5222 8.74086 13.8606 7.73075 16.5925C6.72064 19.3244 5.85165 21.6135 5.79981 21.679C5.74778 21.7447 5.32173 21.7984 4.85267 21.7984H4V22.4439C4 24.6607 7.4441 26.6462 10.8577 26.3972C13.8709 26.1773 16.4356 24.4165 16.5416 22.4946L16.576 21.8734L15.6402 21.7984L14.7046 21.7234L14.3624 20.8235C13.1164 17.5449 10.912 11.4798 10.912 11.3299C10.912 11.1948 12.0168 11.1496 15.328 11.1496H19.744V16.4745V21.7992L18.9871 22.3333C17.56 23.3405 17.0783 24.7522 17.7478 25.9652C17.9169 26.2719 18.1798 26.9278 18.3315 27.4228C18.4833 27.9177 18.8201 28.5743 19.0799 28.882C19.3395 29.1894 19.552 29.6451 19.552 29.8943C19.552 30.3344 19.5259 30.3476 18.64 30.3507C17.4262 30.3551 16.3212 30.7692 15.4839 31.5332C14.5084 32.4236 14.3423 33.062 14.4077 35.6718L14.464 37.9216L22 37.9609L29.536 38L29.5318 35.4861C29.5283 33.3702 29.4719 32.8772 29.1752 32.3722C28.4602 31.1545 26.9165 30.3567 25.264 30.3507L24.352 30.3474V29.8225C24.352 29.5338 24.4225 29.2976 24.5087 29.2976C24.7721 29.2976 25.4612 28.216 25.7033 27.4228C25.8292 27.0103 26.0518 26.3837 26.1981 26.0302C26.6045 25.0479 26.5396 24.0302 26.032 23.4251C25.7943 23.142 25.432 22.6554 25.2266 22.3441C25.0213 22.0325 24.6972 21.7125 24.5066 21.6328C24.1829 21.4974 24.16 21.1512 24.16 16.389C24.16 12.4 24.2132 11.2743 24.4044 11.217C24.5388 11.1766 26.5588 11.1619 28.8934 11.1841L33.1381 11.2246L31.193 16.474L29.248 21.7234L28.288 21.7984L27.328 21.8734L27.3927 22.4733C27.5453 23.8892 28.9147 25.2723 30.851 25.9667C31.7567 26.2916 32.2215 26.3568 33.664 26.3619C35.1301 26.3672 35.5533 26.3094 36.4568 25.9804C38.507 25.2338 39.832 23.9216 39.9466 22.5242L40 21.8734L39.058 21.7984L38.1163 21.7234L36.1729 16.474L34.2296 11.2246L35.1468 11.1793L36.064 11.1339V10.092V9.04988H30.2189C24.8109 9.04988 24.3551 9.02963 24.1229 8.77991C23.6214 8.24027 22.9396 8 21.9098 8C21.0221 8 20.8054 8.06479 20.1533 8.52494ZM20.7284 8.9143C19.8137 9.58007 19.815 10.5962 20.7315 11.244C21.3263 11.6645 22.6516 11.6225 23.2776 11.1631C24.1892 10.4942 24.0484 9.18486 23.0186 8.75441C22.3805 8.48759 21.2017 8.56993 20.7284 8.9143ZM8.608 10.0998V10.5497H13.936H19.264V10.0998V9.64981H13.936H8.608V10.0998ZM24.736 10.0998V10.5497H30.016H35.296V10.0998V9.64981H30.016H24.736V10.0998ZM20.512 16.7359C20.512 21.2448 20.532 21.5239 20.848 21.4187C21.0329 21.3572 21.6809 21.2742 22.288 21.2346L23.392 21.1625V16.545V11.9276L22.7069 12.0918C22.2218 12.2082 21.8019 12.2102 21.2669 12.0986L20.512 11.9412V16.7359ZM33.4265 12.6066C33.3209 12.9188 32.5819 14.9292 31.7839 17.074C30.986 19.2187 30.2741 21.159 30.2019 21.386L30.0703 21.7984H33.6433C36.3741 21.7984 37.2158 21.7542 37.2149 21.6109C37.2137 21.3968 33.7999 12.1808 33.6901 12.095C33.6506 12.0641 33.5319 12.2943 33.4265 12.6066ZM9.7863 13.1938C8.73242 15.995 6.688 21.6048 6.688 21.6955C6.688 21.7521 8.2864 21.7984 10.24 21.7984C12.6095 21.7984 13.792 21.7456 13.792 21.6397C13.792 21.3569 10.4792 12.4287 10.3243 12.2939C10.2417 12.2219 9.99962 12.6268 9.7863 13.1938ZM20.9642 22.0154C20.118 22.303 18.881 23.2107 18.5158 23.8119C18.1834 24.3589 18.1149 25.2009 18.3764 25.5232C18.5743 25.7671 18.7775 25.2746 18.7813 24.5408C18.7857 23.7585 19.2982 23.6534 21.1122 24.0629L22.6305 24.4056L23.5782 24.0927C24.6398 23.7423 24.8643 23.8022 25.3798 24.5731L25.6806 25.023L25.6883 24.5558C25.6925 24.2989 25.5328 23.9265 25.3333 23.7284C25.1338 23.5303 24.8381 23.1207 24.6765 22.8183C24.5048 22.4973 24.14 22.1704 23.8006 22.0333C23.0911 21.7468 21.779 21.7384 20.9642 22.0154ZM4.84173 22.8858C5.1472 24.109 7.01248 25.3925 8.93824 25.7049C11.9826 26.1985 14.9444 24.9389 15.7226 22.8195L15.8771 22.3983H10.2986H4.72L4.84173 22.8858ZM28.2657 22.8858C28.5712 24.109 30.4365 25.3925 32.3622 25.7049C35.4066 26.1985 38.3684 24.9389 39.1466 22.8195L39.3011 22.3983H33.7226H28.144L28.2657 22.8858ZM19.552 24.7346C19.552 24.965 19.4099 25.5489 19.2362 26.0324C18.9693 26.7757 18.9578 27.009 19.1619 27.5422C19.6513 28.8202 20.6067 29.4475 22.0637 29.4475C23.8353 29.4475 25.0027 28.2912 25.0161 26.5229C25.0204 25.9454 24.9109 25.2638 24.7727 25.008L24.5213 24.5431L23.4769 24.7702C22.5353 24.9749 22.3237 24.9737 21.3282 24.7574C20.7209 24.6256 20.0729 24.4723 19.888 24.4168C19.6175 24.3357 19.552 24.3976 19.552 24.7346ZM20.32 30.2037C20.32 30.3309 20.6906 30.7191 21.1437 31.0665L21.9674 31.6979L22.7757 31.0545C23.9847 30.0922 23.8937 29.9725 21.9516 29.9725C20.6095 29.9725 20.3198 30.0136 20.32 30.2037ZM17.344 31.1605C16.6211 31.4134 15.6076 32.2396 15.3397 32.7944C15.2278 33.0266 15.136 34.1571 15.136 35.3066V37.3966H16.192H17.248V35.4468C17.248 33.5971 17.2678 33.4971 17.632 33.4971C17.9962 33.4971 18.016 33.5971 18.016 35.4468V37.3966H19.2511C20.6898 37.3966 20.5784 37.5322 20.914 35.3719C21.2291 33.3441 21.2341 33.4302 20.8 33.4258C20.5354 33.4233 20.0879 33.039 19.36 32.1898C18.7792 31.5122 18.2176 30.958 18.112 30.9585C18.0064 30.9588 17.6608 31.0498 17.344 31.1605ZM19.36 31.0329C19.36 31.1018 20.3786 32.3361 20.6437 32.5882C20.6819 32.6246 20.8588 32.5406 21.0365 32.4016C21.3399 32.1648 21.3132 32.1115 20.6092 31.5482C19.9496 31.0207 19.36 30.7774 19.36 31.0329ZM23.3044 31.5405C22.6776 32.0421 22.601 32.1697 22.8089 32.3655C22.9443 32.4929 23.1186 32.5972 23.1964 32.5972C23.2741 32.5972 23.6531 32.226 24.0388 31.7723C24.6283 31.0787 24.6847 30.9474 24.3929 30.9474C24.202 30.9474 23.7123 31.2143 23.3044 31.5405ZM24.6087 32.218C23.7892 33.1557 23.3976 33.4836 23.152 33.4378C22.7267 33.3585 22.7177 33.7892 23.104 35.7468C23.2586 36.5305 23.3866 37.2223 23.3885 37.2841C23.3905 37.3459 23.9536 37.3966 24.64 37.3966H25.888V35.4468C25.888 33.5971 25.9078 33.4971 26.272 33.4971C26.6362 33.4971 26.656 33.5971 26.656 35.4468V37.3966H27.712H28.768V35.2693C28.768 32.8055 28.4848 32.0947 27.2568 31.477C25.888 30.7885 25.8479 30.7998 24.6087 32.218ZM21.76 32.7472C21.6834 32.844 21.707 32.9907 21.8126 33.0732C21.9407 33.1733 22.0511 33.1646 22.144 33.0471C22.2206 32.9502 22.197 32.8036 22.0914 32.7211C21.9633 32.621 21.8529 32.6297 21.76 32.7472ZM21.6786 35.481C21.5503 36.246 21.4025 36.9897 21.3497 37.1342C21.2716 37.3491 21.3783 37.3966 21.9391 37.3966C22.3158 37.3966 22.624 37.3624 22.624 37.3206C22.624 37.1025 22.0271 34.1805 21.9739 34.1391C21.9397 34.1125 21.8068 34.7163 21.6786 35.481Z" fill="#160000"/>
</svg>
