<svg width="32" height="32" viewBox="0 0 32 32" fill="none" xmlns="http://www.w3.org/2000/svg">
<path fill-rule="evenodd" clip-rule="evenodd" d="M12.2613 7.23095C12.37 7.36194 12.621 7.49211 12.8192 7.52039C13.3008 7.58903 13.2444 7.8252 12.2607 9.85489C11.8111 10.7822 11.4431 11.6378 11.443 11.7561C11.4423 12.1952 11.9714 12.9715 12.4844 13.2843C12.7954 13.474 13.3119 13.6075 13.7363 13.6078C14.3586 13.6083 14.55 13.5172 15.1189 12.948C15.9449 12.1221 15.9221 11.8321 14.8537 9.57604L14.0796 7.94197L14.5859 8.04319C14.8642 8.09893 15.5053 8.26449 16.0104 8.41135C16.7689 8.63182 16.9581 8.76264 17.0975 9.16223C17.1901 9.42835 17.4071 9.72159 17.5795 9.81371C17.8747 9.97182 17.8921 10.2184 17.8787 14.0691C17.8709 16.3172 17.8077 17.9702 17.7384 17.7423C17.0606 15.5139 14.705 14.2548 12.6004 14.9956C12.191 15.1397 11.8002 15.2586 11.7321 15.2599C11.5501 15.2635 11.5807 14.6943 11.7727 14.5022C11.8821 14.3929 11.6902 14.0949 11.2016 13.6154C10.5889 13.014 10.4245 12.9277 10.2179 13.0992C9.88331 13.3769 9.29253 13.167 9.29253 12.7704C9.29253 12.4873 9.16981 12.4507 8.21749 12.4507C7.27492 12.4507 7.14244 12.4891 7.14244 12.7621C7.14244 13.1353 6.51296 13.3448 6.19227 13.0785C6.01844 12.9343 5.80889 13.0506 5.2459 13.6032C4.60517 14.232 4.54282 14.3569 4.69911 14.7C4.89361 15.1267 4.64751 15.5932 4.22791 15.5932C4.05921 15.5932 4 15.8551 4 16.6011C4 17.4641 4.04664 17.621 4.32533 17.694C4.73765 17.8016 4.91759 18.3444 4.6485 18.6686C4.47716 18.8752 4.56283 19.0391 5.16088 19.6486C5.69477 20.1924 5.93277 20.3358 6.08823 20.2068C6.4392 19.9157 7.05379 20.0997 7.11267 20.5136C7.16113 20.8549 7.25243 20.8857 8.21749 20.8857C9.18255 20.8857 9.27384 20.8549 9.3223 20.5136C9.39557 19.998 10.0507 19.9124 10.205 20.3981C10.3798 20.9494 11.4296 22.03 12.144 22.3946C12.6288 22.6418 13.0957 22.7182 14.0573 22.7076C14.7569 22.6999 16.4532 22.7442 17.8267 22.806C19.2003 22.8681 20.5213 22.8692 20.7624 22.8087C21.3691 22.6564 21.3438 22.0247 20.7046 21.3559C20.4317 21.0703 20.2084 20.7476 20.2084 20.6388C20.2084 20.2655 19.6032 19.8933 18.9962 19.8933H18.3891V14.9627V10.032L18.8439 9.70108L19.2987 9.37029L20.7873 9.80428C21.9751 10.1508 22.2657 10.2958 22.2262 10.5224C22.1987 10.6785 21.799 11.5885 21.3377 12.5445C20.5177 14.2444 20.5043 14.2963 20.7317 14.894C21.3474 16.5117 23.6962 16.7332 24.5688 15.2558C24.9743 14.5695 24.9058 14.1258 24.1591 12.6002C23.1184 10.4743 23.1274 10.5148 23.7185 10.6015C24.0928 10.6565 24.2006 10.6172 24.1439 10.4465C24.0995 10.3137 23.087 9.94106 21.7249 9.55636C20.4361 9.1925 19.3818 8.81177 19.3816 8.71038C19.3816 8.609 19.2271 8.32981 19.0386 8.09016C18.6418 7.58572 18.0762 7.52733 17.408 7.92212C16.9766 8.17683 16.8546 8.16095 14.8679 7.59134C12.5608 6.92977 11.9401 6.84394 12.2613 7.23095ZM12.9335 9.53138C12.5683 10.3216 12.2696 11.0412 12.2696 11.1306C12.2696 11.2233 12.8372 11.293 13.5927 11.293C14.6279 11.293 14.9158 11.2417 14.9158 11.0571C14.9158 10.9275 14.6191 10.2078 14.2566 9.45795L13.5972 8.09463L12.9335 9.53138ZM17.6256 8.38903C17.3775 9.03554 17.9829 9.70637 18.5131 9.37244C19.1376 8.97914 18.868 8.15053 18.1155 8.15053C17.8964 8.15053 17.6759 8.25787 17.6256 8.38903ZM22.0482 12.1874C21.6716 12.9978 21.3919 13.6893 21.4268 13.7244C21.4619 13.7593 22.0816 13.7661 22.804 13.7394L24.1176 13.6911L23.4254 12.2026L22.7331 10.7141L22.0482 12.1874ZM12.0236 11.7857C11.9686 11.8748 12.002 12.0943 12.0977 12.2734C12.6098 13.23 13.9794 13.4126 14.7632 12.6288C15.6193 11.7728 15.4595 11.6238 13.6852 11.6238C12.8263 11.6238 12.0787 11.6967 12.0236 11.7857ZM7.52466 13.0987C7.42609 13.4756 6.60211 13.8557 6.21013 13.7054C5.81914 13.5554 5.12483 14.2364 5.25383 14.6433C5.3921 15.0786 5.02956 15.8756 4.648 15.9754C4.18706 16.0959 4.19649 17.1733 4.65958 17.2945C5.04709 17.3958 5.37887 18.1604 5.25284 18.662C5.13293 19.1403 5.87008 19.8636 6.19921 19.5903C6.50238 19.3388 7.42344 19.6854 7.52962 20.0908C7.63895 20.5094 8.73483 20.5129 8.86748 20.0951C8.91891 19.9332 9.19181 19.7136 9.47397 19.607C10.0227 19.4 10.0628 18.9397 9.52276 19.0444C9.35075 19.0778 8.80049 19.139 8.30018 19.1805C7.16113 19.2749 6.4129 18.8355 5.85123 17.7419C4.57804 15.2622 7.76415 12.7727 9.85801 14.6112C10.1613 14.8775 10.5042 15.3239 10.6198 15.6032C10.8085 16.0589 10.8561 16.085 11.0831 15.8583C11.283 15.6583 11.2979 15.5219 11.154 15.2061C11.0214 14.9149 11.0217 14.7571 11.1555 14.6233C11.4456 14.3332 10.665 13.5898 10.1942 13.7079C9.74141 13.8216 8.79636 13.36 8.79636 13.0253C8.79636 12.6293 7.62985 12.6967 7.52466 13.0987ZM21.1567 14.3693C20.969 14.5568 21.4311 15.2875 21.8863 15.5229C22.6277 15.9062 23.3148 15.8201 23.8597 15.2751C24.7138 14.421 24.5547 14.27 22.7996 14.27C21.9505 14.27 21.2111 14.3147 21.1567 14.3693ZM7.1527 14.7376C6.08079 15.3125 5.69014 16.6793 6.30821 17.693C6.75906 18.4323 7.37912 18.7907 8.20756 18.7907C9.18966 18.7907 9.79863 18.3145 10.1706 17.2555C10.4592 16.4338 10.4592 16.3822 10.1706 15.7939C9.57502 14.5798 8.28728 14.1291 7.1527 14.7376ZM7.12971 15.5804C6.71904 15.9911 6.63552 16.197 6.67753 16.6942C6.7498 17.5517 7.14244 17.6329 7.14244 16.7903C7.14244 15.9749 7.53326 15.5932 8.36832 15.5932C9.18767 15.5932 9.08182 15.199 8.24345 15.1282C7.74629 15.0862 7.54037 15.1698 7.12971 15.5804ZM12.2919 15.6876C10.1501 16.7745 9.68153 19.3834 11.3106 21.1508C13.0226 23.0082 15.8738 22.5892 16.9856 20.3169C17.3749 19.5212 17.4278 19.2496 17.3466 18.4632C17.0883 15.9608 14.5259 14.5537 12.2919 15.6876ZM9.34579 15.8758C9.2234 15.9183 9.1842 16.1479 9.24043 16.494C9.35968 17.2292 8.83423 17.7891 8.09609 17.7131C7.46032 17.6478 7.28269 18.0199 7.8781 18.1693C8.47103 18.3181 9.26111 17.953 9.54839 17.3974C9.93392 16.6518 9.80922 15.7147 9.34579 15.8758ZM12.559 16.1839C12.0046 16.4848 11.9448 16.8389 12.4763 16.6742C13.4146 16.3834 13.5927 16.3793 13.5927 16.6488C13.5927 16.796 13.7044 16.9163 13.8408 16.9163C13.9773 16.9163 14.0889 16.8046 14.0889 16.6682C14.0889 16.0746 15.4224 16.6541 15.9148 17.4619C16.3003 18.094 16.3331 18.5702 15.9909 18.5702C15.8544 18.5702 15.7428 18.6818 15.7428 18.8183C15.7428 18.9547 15.8544 19.0664 15.9909 19.0664C16.3073 19.0664 16.3103 19.5526 15.9967 20.0002C15.8635 20.1904 15.8015 20.393 15.8589 20.4505C16.2932 20.8847 16.7901 19.7711 16.7024 18.5598C16.5842 16.9264 15.4759 15.9168 13.8158 15.9306C13.3747 15.9342 12.8093 16.0481 12.559 16.1839ZM11.1676 17.6994C10.4147 19.5012 11.8673 21.7117 13.8047 21.7123C14.4794 21.7126 15.5774 21.3253 15.5774 21.0871C15.5774 20.7795 15.3531 20.7423 14.9031 20.975C14.309 21.2821 14.0889 21.2803 14.0889 20.9684C14.0889 20.8319 13.9773 20.7203 13.8408 20.7203C13.7044 20.7203 13.5927 20.8319 13.5927 20.9684C13.5927 21.5501 12.2926 20.8718 11.7726 20.0189C11.3799 19.3752 11.3535 19.0664 11.6907 19.0664C11.8272 19.0664 11.9388 18.9547 11.9388 18.8183C11.9388 18.6818 11.8272 18.5702 11.6907 18.5702C11.3814 18.5702 11.3765 18.2874 11.6758 17.7136C11.803 17.4699 11.8645 17.228 11.8126 17.1761C11.5992 16.9626 11.412 17.1146 11.1676 17.6994ZM13.5927 18.3221C13.5927 19.0388 13.6111 19.0664 14.0889 19.0664C14.4197 19.0664 14.5851 18.9837 14.5851 18.8183C14.5851 18.6818 14.4734 18.5702 14.337 18.5702C14.1716 18.5702 14.0889 18.4048 14.0889 18.074C14.0889 17.7432 14.0062 17.5779 13.8408 17.5779C13.6571 17.5779 13.5927 17.7709 13.5927 18.3221ZM17.3967 20.7203C17.2265 21.0383 17.271 21.0511 18.5487 21.0511C19.2795 21.0511 19.8776 20.9915 19.8776 20.9188C19.8776 20.5771 19.399 20.3895 18.5272 20.3895C17.7431 20.3895 17.5423 20.4482 17.3967 20.7203ZM16.3217 21.9659L15.8255 22.3726L18.265 22.3734C20.1568 22.374 20.7046 22.3259 20.7046 22.1592C20.7046 21.6625 20.2975 21.5473 18.5627 21.5532C16.9586 21.5587 16.7778 21.5919 16.3217 21.9659Z" fill="#440707"/>
</svg>
