<svg width="42" height="42" viewBox="0 0 42 42" fill="none" xmlns="http://www.w3.org/2000/svg">
<path fill-rule="evenodd" clip-rule="evenodd" d="M28.4313 13.5378V12.6149H10.5387L9.90649 9.13641C9.8484 8.81742 9.68019 8.52893 9.43118 8.32126C9.18218 8.11358 8.86819 7.99989 8.54395 8H6.46149C6.33909 8 6.22171 8.04862 6.13517 8.13517C6.04862 8.22171 6 8.33909 6 8.46149C6 8.58388 6.04862 8.70126 6.13517 8.78781C6.22171 8.87435 6.33909 8.92298 6.46149 8.92298H8.53818C8.64746 8.92119 8.75382 8.95825 8.83833 9.02755C8.92284 9.09685 8.98001 9.19389 8.99967 9.30139L11.9417 25.4881C12.0446 26.0509 12.353 26.5554 12.8069 26.9037C12.3309 27.2105 11.9604 27.6559 11.7454 28.1798C11.5304 28.7038 11.4812 29.2811 11.6045 29.8338C11.7278 30.3866 12.0176 30.8883 12.4349 31.2712C12.8521 31.6541 13.3768 31.8999 13.9381 31.9753C14.4994 32.0508 15.0703 31.9523 15.5739 31.6932C16.0775 31.434 16.4895 31.0267 16.7544 30.5262C17.0193 30.0256 17.1243 29.4558 17.0553 28.8937C16.9863 28.3316 16.7466 27.8041 16.3685 27.3825H23.3208C22.8981 27.8551 22.6504 28.4585 22.6191 29.0918C22.5878 29.7251 22.7748 30.35 23.1489 30.8619C23.5229 31.3739 24.0614 31.742 24.6743 31.9047C25.2871 32.0674 25.9373 32.0147 26.516 31.7557C27.0947 31.4966 27.567 31.0467 27.8539 30.4812C28.1408 29.9158 28.2249 29.269 28.0922 28.6489C27.9595 28.0289 27.618 27.4732 27.1248 27.0747C26.6316 26.6762 26.0166 26.459 25.3825 26.4595H14.211C13.887 26.4593 13.5733 26.3455 13.3245 26.1379C13.0757 25.9302 12.9077 25.6419 12.8496 25.3231L12.3881 22.7676H21.7461V21.8446H12.2162L10.706 13.5378H28.4313ZM16.1527 29.2284C16.1527 29.5935 16.0445 29.9504 15.8416 30.254C15.6388 30.5575 15.3505 30.7941 15.0132 30.9339C14.6759 31.0736 14.3047 31.1101 13.9466 31.0389C13.5886 30.9677 13.2597 30.7919 13.0015 30.5337C12.7433 30.2755 12.5675 29.9466 12.4963 29.5886C12.4251 29.2305 12.4616 28.8593 12.6013 28.522C12.7411 28.1847 12.9777 27.8964 13.2812 27.6936C13.5848 27.4907 13.9417 27.3825 14.3068 27.3825C14.7963 27.3825 15.2659 27.577 15.6121 27.9231C15.9582 28.2693 16.1527 28.7388 16.1527 29.2284ZM27.2284 29.2284C27.2284 29.5935 27.1202 29.9504 26.9173 30.254C26.7145 30.5575 26.4262 30.7941 26.0889 30.9339C25.7516 31.0736 25.3804 31.1101 25.0223 31.0389C24.6643 30.9677 24.3354 30.7919 24.0772 30.5337C23.819 30.2755 23.6432 29.9466 23.572 29.5886C23.5008 29.2305 23.5373 28.8593 23.677 28.522C23.8168 28.1847 24.0534 27.8964 24.3569 27.6936C24.6605 27.4907 25.0174 27.3825 25.3825 27.3825C25.8721 27.3825 26.3416 27.577 26.6878 27.9231C27.0339 28.2693 27.2284 28.7388 27.2284 29.2284Z" fill="#160000"/>
<path d="M22.2012 25.2602H30.7248M29.5883 25.2602V22.4189H23.3377V25.2602" stroke="#160000" stroke-width="1.13649" stroke-linecap="round" stroke-linejoin="round"/>
<path d="M30.4815 11.2959L26.4071 15.3702C25.9633 15.814 25.9633 16.5336 26.4071 16.9774L28.2072 18.7776C28.6511 19.2214 29.3707 19.2214 29.8145 18.7776L33.8888 14.7032C34.3327 14.2594 34.3327 13.5398 33.8888 13.096L32.0887 11.2959C31.6449 10.852 30.9253 10.852 30.4815 11.2959Z" stroke="#160000" stroke-width="1.13649" stroke-linecap="round" stroke-linejoin="round"/>
<path d="M31.8613 16.7368L36.9755 21.851" stroke="#160000" stroke-width="1.13649" stroke-linecap="round" stroke-linejoin="round"/>
</svg>
