<svg width="32" height="32" viewBox="0 0 32 32" fill="none" xmlns="http://www.w3.org/2000/svg">
<path fill-rule="evenodd" clip-rule="evenodd" d="M14.1223 6.0524C13.8304 6.13101 13.6382 6.23486 13.4064 6.43923C13.1537 6.66206 12.9884 6.95453 12.9057 7.32546C12.8334 7.64953 12.8486 7.78401 12.9714 7.90682C13.148 8.08338 13.5005 7.95074 13.5005 7.70776C13.5005 7.49096 13.6262 7.16823 13.7749 7.00371C13.9498 6.81011 14.0773 6.73867 14.3537 6.67939C14.9012 6.562 15.4602 6.99739 15.5264 7.59257C15.5568 7.8658 15.6624 7.98735 15.8695 7.98735C16.0501 7.98735 16.1916 7.84248 16.1916 7.65765C16.1916 7.1085 15.8216 6.48228 15.3434 6.22202C14.9417 6.00335 14.5213 5.94496 14.1223 6.0524ZM5.54943 8.54592C5.34417 8.62005 5.2866 8.91069 5.44566 9.06971C5.53863 9.16272 5.57479 9.16981 5.95538 9.16981H6.36504L5.20293 11.4938C4.56375 12.772 4.04077 13.8646 4.04077 13.9218C4.04077 14.1416 4.3273 14.2936 4.53362 14.1832C4.58226 14.1571 5.05145 13.2644 5.7361 11.8953C6.35363 10.6605 6.86477 9.65674 6.87199 9.66481C6.87925 9.67289 7.36748 10.6428 7.95696 11.8202C8.54644 12.9975 9.07255 14.0205 9.12601 14.0933C9.23597 14.2431 9.41991 14.2724 9.57379 14.1646C9.78794 14.0146 9.79316 14.0281 8.54864 11.5393C7.90823 10.2587 7.38428 9.20149 7.38428 9.19008C7.38428 9.17862 8.72829 9.17397 10.371 9.17976L13.3577 9.1902L13.3484 9.27998C13.3171 9.58037 12.3478 18.2057 12.0892 20.4847C11.9635 21.593 12.0318 21.7629 12.9815 22.703L13.6432 23.358L12.845 23.3587C12.0638 23.3593 12.0449 23.3613 11.9581 23.4537C11.8479 23.571 11.8432 23.7663 11.9474 23.8951L12.0254 23.9913L14.6443 24.0024C17.4993 24.0145 17.4074 24.0214 17.4966 23.7869C17.5432 23.6642 17.4761 23.4547 17.3724 23.3993C17.3314 23.3773 16.9572 23.3593 16.5408 23.3593C16.1245 23.3593 15.7838 23.3489 15.7838 23.3361C15.7838 23.3233 16.0746 23.0303 16.4301 22.685C16.9783 22.1523 17.094 22.0182 17.193 21.801C17.4086 21.3273 17.4447 21.7051 16.6401 16.0199C16.5528 15.4032 16.3149 13.7151 16.1115 12.2687C15.9081 10.8222 15.7264 9.54261 15.7079 9.42518C15.6893 9.30771 15.6835 9.20223 15.695 9.19073C15.7286 9.15709 22.0713 9.16671 22.056 9.20039C22.0485 9.21719 21.524 10.2627 20.8906 11.5238C20.2572 12.7848 19.739 13.8636 19.739 13.9211C19.739 14.1416 20.0252 14.2937 20.2318 14.1832C20.2804 14.1571 20.7496 13.2644 21.4343 11.8953C22.0518 10.6605 22.5632 9.65674 22.5707 9.66481C22.5782 9.67289 23.0767 10.6611 23.6784 11.8609C24.2801 13.0607 24.8134 14.0837 24.8634 14.1341C25.0344 14.3066 25.3339 14.2196 25.386 13.9823C25.4086 13.8791 25.2415 13.5202 24.2475 11.5378C23.6067 10.2599 23.0825 9.20435 23.0825 9.19212C23.0825 9.17984 23.2536 9.16981 23.4627 9.16981C23.8075 9.16981 23.8512 9.161 23.9316 9.07546C24.0532 8.94604 24.0482 8.74547 23.9202 8.61752L23.8201 8.51742L14.7153 8.52064C9.70774 8.52239 5.58307 8.53381 5.54943 8.54592ZM14.0123 9.26155C14.0015 9.31199 13.9187 10.023 13.8283 10.8416C13.6799 12.1857 13.3659 14.9811 13.258 15.918C13.2348 16.1198 13.1791 16.6047 13.1342 16.9955C13.0893 17.3862 13.0633 17.7165 13.0763 17.7294C13.0893 17.7423 13.4673 17.3767 13.9162 16.917C14.3651 16.4572 14.9802 15.831 15.2832 15.5254L15.8341 14.9697L15.7275 14.2206C15.6011 13.3324 15.3908 11.8325 15.1906 10.393C15.1111 9.82118 15.0374 9.31199 15.0268 9.26155C15.0081 9.17258 14.9927 9.16981 14.5198 9.16981C14.047 9.16981 14.0315 9.17263 14.0123 9.26155ZM6.45356 13.5047C6.37393 13.5895 6.36492 13.6435 6.36492 14.0361C6.36492 14.3509 6.35069 14.477 6.31395 14.4873C6.28594 14.495 6.1162 14.5336 5.93679 14.5728C4.91045 14.7974 4.28542 15.5147 4.28542 16.4678C4.28542 17.0422 4.5372 17.6015 4.96183 17.9704C5.20815 18.1844 5.78017 18.4673 6.2426 18.6039C7.67492 19.0271 7.86318 19.1087 8.16206 19.4357C8.86493 20.2048 8.33192 21.2186 7.12891 21.4007C6.16174 21.5472 5.14507 21.0396 4.72562 20.2009C4.55983 19.8694 4.50263 19.812 4.33843 19.812C4.17227 19.812 4 19.9643 4 20.1112C4 20.2797 4.31038 20.8407 4.55025 21.1058C4.94658 21.5437 5.45369 21.8356 6.10082 21.9981L6.36492 22.0645V22.5213C6.36492 22.9461 6.37153 22.9844 6.45927 23.0668C6.58465 23.1846 6.77426 23.182 6.88789 23.0611C6.96744 22.9764 6.97654 22.9222 6.97654 22.5329V22.099L7.12944 22.0743C7.77282 21.9704 8.16161 21.7968 8.5369 21.4457C9.31267 20.72 9.33029 19.6836 8.57975 18.9236C8.24891 18.5885 7.82016 18.3861 6.7957 18.0811C5.90335 17.8155 5.5405 17.6417 5.28513 17.3577C4.96505 17.0017 4.85345 16.486 5.00203 16.0499C5.30646 15.1564 6.90208 14.8332 7.88956 15.4649C8.17837 15.6497 8.47463 15.9905 8.62008 16.3053C8.78158 16.655 8.83614 16.7131 9.00303 16.7131C9.17979 16.7131 9.34146 16.5604 9.34146 16.3935C9.34146 16.3278 9.269 16.1293 9.18048 15.9524C8.82264 15.2375 8.10958 14.6932 7.34351 14.5504C7.19774 14.5232 7.05556 14.4947 7.02751 14.487C6.99073 14.4769 6.97654 14.3499 6.97654 14.0304C6.97654 13.6203 6.96957 13.5811 6.88219 13.499C6.7568 13.3812 6.5672 13.3838 6.45356 13.5047ZM22.1705 13.4949C22.0662 13.577 22.0631 13.5921 22.0631 14.0262C22.0631 14.3489 22.049 14.477 22.0121 14.4873C21.9841 14.495 21.8144 14.5335 21.635 14.5728C20.6107 14.7969 19.9836 15.5167 19.9836 16.4684C19.9836 16.8435 20.0857 17.2118 20.2718 17.5082C20.4376 17.7722 20.5299 17.8721 20.7804 18.0587C21.1515 18.3351 21.5113 18.4814 22.6251 18.8089C23.3037 19.0084 23.6133 19.1655 23.8602 19.4357C24.5637 20.2054 24.0311 21.2184 22.8271 21.4007C21.8622 21.5468 20.8422 21.0376 20.4238 20.2009C20.261 19.8755 20.1996 19.812 20.0475 19.812C19.878 19.812 19.7515 19.9066 19.7182 20.0585C19.6973 20.1534 19.7238 20.2518 19.8305 20.4764C20.1794 21.2109 20.8567 21.7482 21.7216 21.9767L22.0631 22.0669V22.5267C22.0631 22.9748 22.0658 22.9886 22.1705 23.0709C22.307 23.1783 22.4711 23.1788 22.5855 23.0723C22.6668 22.9966 22.6747 22.9495 22.6747 22.5441V22.099L22.8276 22.0747C23.7513 21.9278 24.3179 21.5609 24.6534 20.8925C25.0898 20.023 24.6857 19.0057 23.7088 18.5146C23.5264 18.4229 23.0139 18.2392 22.5567 18.1017C22.1038 17.9655 21.6209 17.7974 21.4838 17.7282C20.9459 17.4566 20.6335 16.9869 20.6383 16.4567C20.6444 15.7711 21.1701 15.2783 22.0175 15.1637C23.055 15.0234 23.932 15.4645 24.3305 16.3269C24.4074 16.4933 24.5055 16.6483 24.5484 16.6713C24.7613 16.7852 25.0396 16.6278 25.0396 16.3935C25.0396 16.2073 24.7414 15.657 24.4898 15.379C24.0836 14.9301 23.4824 14.6029 22.9144 14.5215L22.6951 14.49L22.6747 14.013C22.657 13.5975 22.6438 13.528 22.5728 13.4744C22.4578 13.3878 22.2963 13.396 22.1705 13.4949ZM14.6609 17.092C13.9666 17.7958 13.2923 18.4814 13.1624 18.6155L12.9263 18.8595L12.8465 19.5498C12.8026 19.9295 12.7668 20.286 12.7671 20.342C12.7675 20.4286 12.8422 20.3672 13.2638 19.9343C13.5368 19.654 14.2915 18.8895 14.9409 18.2355L16.1215 17.0463L16.0495 16.5025C16.0099 16.2035 15.9653 15.9258 15.9504 15.8856C15.9288 15.8271 15.67 16.0692 14.6609 17.092ZM14.4644 19.6465L12.7215 21.398L12.7891 21.5288C12.8504 21.6473 14.2339 23.0354 14.497 23.2424C14.5574 23.2899 14.6528 23.3288 14.709 23.3288C14.8234 23.3288 14.8642 23.2939 15.6817 22.4968C15.9958 22.1905 16.3103 21.8925 16.3806 21.8344C16.5413 21.7019 16.6833 21.4047 16.6916 21.1839C16.6951 21.0909 16.6202 20.4735 16.5253 19.812C16.4303 19.1504 16.3318 18.4623 16.3065 18.2829C16.2811 18.1035 16.2484 17.9428 16.2338 17.9258C16.2191 17.9088 15.4229 18.6831 14.4644 19.6465ZM8.79651 24.7894C8.65221 24.9029 8.64886 25.1169 8.78917 25.2572C8.92381 25.3919 9.0752 25.3852 9.22227 25.2381C9.36935 25.091 9.37603 24.9396 9.24136 24.805C9.11757 24.6812 8.94191 24.675 8.79651 24.7894ZM10.1162 24.7864C9.99899 24.9036 10.0079 25.1304 10.1347 25.2572L10.2348 25.3573H14.672C19.5205 25.3573 19.2408 25.3709 19.3322 25.1305C19.378 25.0099 19.31 24.7998 19.2073 24.7448C19.1599 24.7195 17.5013 24.7049 14.6652 24.7049C10.2521 24.7049 10.1967 24.7059 10.1162 24.7864ZM20.1467 24.7864C20.022 24.9111 20.0355 25.165 20.1726 25.2728C20.3151 25.3849 20.4544 25.3795 20.5767 25.2572C20.7886 25.0453 20.6618 24.7049 20.371 24.7049C20.2826 24.7049 20.1972 24.736 20.1467 24.7864Z" fill="#741102"/>
</svg>
