<svg width="32" height="32" viewBox="0 0 32 32" fill="none" xmlns="http://www.w3.org/2000/svg">
<path fill-rule="evenodd" clip-rule="evenodd" d="M20 10.4439V9.70328H5.64218L5.13483 6.91193C5.08821 6.65595 4.95322 6.42445 4.75341 6.2578C4.55359 6.09115 4.30162 5.99991 4.04143 6H2.37033C2.27211 6 2.17792 6.03902 2.10847 6.10847C2.03902 6.17792 2 6.27211 2 6.37033C2 6.46855 2.03902 6.56274 2.10847 6.63219C2.17792 6.70164 2.27211 6.74066 2.37033 6.74066H4.0368C4.12449 6.73923 4.20984 6.76896 4.27766 6.82457C4.34548 6.88018 4.39136 6.95805 4.40713 7.04433L6.76797 20.0336C6.85058 20.4852 7.09805 20.8901 7.46234 21.1696C7.08034 21.4158 6.78302 21.7732 6.61048 22.1936C6.43794 22.6141 6.39848 23.0773 6.49741 23.5209C6.59634 23.9645 6.82891 24.367 7.16376 24.6743C7.4986 24.9816 7.91962 25.1788 8.37004 25.2394C8.82046 25.2999 9.27862 25.2209 9.68273 25.013C10.0868 24.805 10.4175 24.4782 10.63 24.0765C10.8426 23.6748 10.9269 23.2176 10.8715 22.7665C10.8161 22.3154 10.6238 21.8921 10.3203 21.5538H15.8993C15.5601 21.933 15.3613 22.4172 15.3362 22.9254C15.3111 23.4337 15.4612 23.9351 15.7614 24.3459C16.0616 24.7568 16.4937 25.0522 16.9855 25.1827C17.4773 25.3132 17.999 25.271 18.4634 25.0631C18.9278 24.8552 19.3068 24.4942 19.537 24.0404C19.7672 23.5867 19.8347 23.0676 19.7283 22.5701C19.6218 22.0725 19.3477 21.6266 18.9519 21.3068C18.5562 20.987 18.0626 20.8127 17.5538 20.8131H8.58906C8.32903 20.813 8.07728 20.7217 7.87766 20.555C7.67803 20.3884 7.54318 20.157 7.49659 19.9012L7.12627 17.8505H14.6355V17.1098H6.98832L5.77642 10.4439H20ZM10.1472 23.0351C10.1472 23.3281 10.0603 23.6145 9.89757 23.8581C9.7348 24.1017 9.50345 24.2915 9.23278 24.4036C8.9621 24.5158 8.66426 24.5451 8.37691 24.4879C8.08957 24.4308 7.82562 24.2897 7.61846 24.0825C7.41129 23.8754 7.27021 23.6114 7.21306 23.3241C7.1559 23.0367 7.18523 22.7389 7.29735 22.4682C7.40947 22.1975 7.59933 21.9662 7.84293 21.8034C8.08653 21.6407 8.37293 21.5538 8.6659 21.5538C9.05877 21.5538 9.43555 21.7098 9.71335 21.9876C9.99115 22.2654 10.1472 22.6422 10.1472 23.0351ZM19.0351 23.0351C19.0351 23.3281 18.9482 23.6145 18.7854 23.8581C18.6227 24.1017 18.3913 24.2915 18.1207 24.4036C17.85 24.5158 17.5521 24.5451 17.2648 24.4879C16.9774 24.4308 16.7135 24.2897 16.5063 24.0825C16.2992 23.8754 16.1581 23.6114 16.1009 23.3241C16.0438 23.0367 16.0731 22.7389 16.1852 22.4682C16.2973 22.1975 16.4872 21.9662 16.7308 21.8034C16.9744 21.6407 17.2608 21.5538 17.5538 21.5538C17.9466 21.5538 18.3234 21.7098 18.6012 21.9876C18.879 22.2654 19.0351 22.6422 19.0351 23.0351Z" fill="#741102"/>
<path d="M15 19.8508H21.84M20.928 19.8508V17.5708H15.912V19.8508" stroke="#741102" stroke-width="0.911993" stroke-linecap="round" stroke-linejoin="round"/>
<path d="M21.6449 8.64468L18.3753 11.9142C18.0192 12.2704 18.0192 12.8478 18.3753 13.204L19.8199 14.6485C20.176 15.0046 20.7535 15.0046 21.1096 14.6485L24.3791 11.379C24.7353 11.0228 24.7353 10.4454 24.3791 10.0892L22.9346 8.64468C22.5785 8.28852 22.001 8.28852 21.6449 8.64468Z" stroke="#741102" stroke-width="0.911993" stroke-linecap="round" stroke-linejoin="round"/>
<path d="M22.752 13.0107L26.8559 17.1147" stroke="#741102" stroke-width="0.911993" stroke-linecap="round" stroke-linejoin="round"/>
</svg>
