<svg width="42" height="42" viewBox="0 0 42 42" fill="none" xmlns="http://www.w3.org/2000/svg">
<path fill-rule="evenodd" clip-rule="evenodd" d="M7.27778 10.3756C5.80077 11.2876 6.32682 13.6925 8.00323 13.6925C9.3127 13.6925 10.0825 11.7443 9.16665 10.7479C8.71372 10.2554 7.77293 10.0698 7.27778 10.3756ZM19.5439 10.6304C19.1152 11.0338 19.052 11.1801 19.2727 11.2586C19.4311 11.3148 20.1005 11.5503 20.7601 11.7821L21.9596 12.2036V11.7184C21.9596 11.0398 21.3961 10.3759 20.6954 10.2289C20.2346 10.132 19.9788 10.2213 19.5439 10.6304ZM29.7049 10.3502C28.1002 11.0546 28.5555 13.776 30.278 13.776C31.8601 13.776 32.5503 11.7833 31.3489 10.6836C30.7315 10.1184 30.3904 10.0491 29.7049 10.3502ZM18.3544 11.5724C18.1972 11.681 18.8461 11.9892 20.1446 12.423C22.1064 13.0784 22.6275 13.1534 22.1081 12.7062C21.8928 12.5206 18.9436 11.3908 18.6964 11.3989C18.6438 11.4008 18.4901 11.4789 18.3544 11.5724ZM18.697 12.7828C18.697 13.4831 19.5078 14.3189 20.1874 14.3189C20.777 14.3189 21.7116 13.5418 21.4477 13.2707C21.3598 13.1803 20.705 12.9187 19.9924 12.6891L18.697 12.2715V12.7828ZM6.12761 16.308C5.42633 17.4023 4.88109 18.458 4.91583 18.6542C4.95805 18.8927 5.63437 19.2835 6.95324 19.8316C8.70163 20.5584 8.95995 20.6166 9.21309 20.3412C9.69788 19.814 9.32671 19.3992 7.84413 18.811C6.34927 18.2178 6.34198 18.2043 6.99892 17.242C7.16915 16.9927 7.19065 17.0405 7.1039 17.476C7.00257 17.985 7.07473 18.0548 8.13854 18.4767C9.83529 19.1499 10.1608 19.6184 9.56987 20.536C9.18987 21.1265 8.98931 21.119 7.25475 20.4492C6.46999 20.146 5.80058 19.9345 5.76718 19.9794C5.7336 20.0241 5.47412 20.8831 5.19027 21.8882C4.52604 24.2398 4.63582 24.5496 6.13298 24.5496H7.18182V26.5183C7.18182 28.0296 7.25187 28.563 7.48332 28.815C7.84759 29.2113 7.9731 29.2205 8.38765 28.8821C8.63925 28.6768 8.71871 28.1981 8.76016 26.6376L8.81313 24.654L9.80516 24.5916C11.13 24.5081 11.3593 24.1985 11.045 22.9194C10.8772 22.2373 10.8678 21.9253 11.0131 21.8727C11.3459 21.752 11.7879 20.6586 11.7879 19.9562C11.7879 19.0701 11.3415 18.2057 10.5406 17.5411C10.0953 17.1716 9.86869 16.8112 9.86869 16.4728C9.86869 16.1917 9.77945 15.7804 9.67043 15.5587C9.46028 15.1317 8.15773 14.3189 7.68349 14.3189C7.529 14.3189 6.82869 15.214 6.12761 16.308ZM16.3694 14.7076C14.8655 15.1121 14.7267 15.2257 13.6073 16.9678C12.7296 18.3335 12.5202 19.248 13.0357 19.4633C13.6637 19.7255 14.2715 19.3033 15.0843 18.0404C16.2454 16.2366 16.5592 16.2704 15.7048 18.1074C15.0307 19.5568 14.982 19.7955 14.8388 22.3573C14.7553 23.8502 14.6824 25.8905 14.6768 26.8912C14.668 28.4831 14.7131 28.7378 15.0378 28.927C16.1183 29.556 16.3344 29.0318 16.496 25.39C16.5724 23.6646 16.7123 22.2529 16.8066 22.2529C17.1188 22.2529 18.6968 23.97 18.702 24.3152C18.7046 24.5016 18.5145 25.4671 18.2792 26.4605C17.8101 28.4405 17.9128 28.9343 18.7929 28.9343C19.4293 28.9343 19.6443 28.5305 20.1511 26.3828C20.8083 23.5988 20.8029 23.5669 19.4339 22.0776C18.7837 21.3702 18.1774 20.7914 18.0867 20.7914C17.9278 20.7914 18.5565 19.2712 18.9206 18.7755C19.0503 18.5989 19.3219 18.6707 19.9362 19.0442C20.3974 19.3246 21.214 19.6107 21.751 19.6798L22.7273 19.8057V24.3699C22.7273 27.0201 22.8015 28.9343 22.9044 28.9343C23.1541 28.9343 23.2627 18.4348 23.0152 18.2368C22.9096 18.1525 22.4448 18.0821 21.9822 18.0802C20.8361 18.0759 19.7796 17.3758 19.9759 16.7507C20.212 15.9986 20.1007 15.3551 19.6426 14.8246C19.1202 14.2197 18.2936 14.1901 16.3694 14.7076ZM29.3398 15.249C28.8798 15.7493 28.8687 15.8389 28.8687 19.0167C28.8687 22.1945 28.8798 22.284 29.3398 22.7843C29.784 23.2677 29.9346 23.2971 31.9787 23.2996L34.1465 23.3023L35.298 25.7015C35.9313 27.0209 36.5975 28.1523 36.7781 28.2158C37.2118 28.3678 37.8334 27.9918 37.9802 27.4884C38.1309 26.9722 35.7425 21.7324 35.2174 21.4268C35.0116 21.3069 34.1468 21.209 33.2955 21.209C31.886 21.209 31.7475 21.1724 31.7475 20.7998C31.7475 20.4314 31.9052 20.3847 33.3308 20.33L34.9141 20.2694V19.643V19.0167L33.3308 18.9561L31.7475 18.8954V17.2699C31.7475 15.8408 31.6937 15.5896 31.3034 15.1904C30.714 14.5882 29.9256 14.6118 29.3398 15.249ZM26.9224 18.2984C23.147 20.4147 23.2032 26.3292 27.019 28.4568C28.9595 29.5387 31.7329 29.019 33.1072 27.3163C34.0175 26.1882 34.149 25.7423 33.7605 25.0975C33.4009 24.5004 32.899 24.3632 32.899 24.8622C32.899 25.3357 31.5414 26.8729 30.842 27.1915C29.2852 27.9005 27.1316 27.2437 26.2473 25.7899C25.0835 23.8765 25.2808 21.9387 26.8036 20.3252C27.6141 19.4662 27.7325 19.2361 27.6809 18.6196L27.6212 17.9067L26.9224 18.2984ZM29.8763 32.4131C29.6108 32.5296 29.5464 32.9013 29.7916 32.9013C29.877 32.9013 30.1144 32.7633 30.3194 32.5948C30.5969 32.3664 30.6186 32.2908 30.404 32.2981C30.2457 32.3035 30.0083 32.3553 29.8763 32.4131ZM3.56357 34.7685C3.28509 36.6021 3.28682 36.6595 3.61865 36.6595C3.77429 36.6595 3.91996 36.4157 3.95451 36.0975C4.00133 35.6632 4.15506 35.4962 4.63025 35.3632C5.1753 35.2105 5.83838 34.5297 5.83838 34.1225C5.83838 33.7281 5.16168 33.3189 4.50934 33.3189H3.78351L3.56357 34.7685ZM6.05852 34.7685C5.78004 36.6021 5.78177 36.6595 6.1136 36.6595C6.26867 36.6595 6.4151 36.4161 6.44945 36.1014C6.53524 35.3128 6.9304 35.2634 7.08356 36.0221C7.17107 36.4553 7.3271 36.6595 7.57084 36.6595C7.8877 36.6595 7.90555 36.585 7.72457 36.0198C7.548 35.4688 7.57602 35.3231 7.92647 34.9677C8.75057 34.1323 8.26136 33.3189 6.93463 33.3189H6.27845L6.05852 34.7685ZM8.9373 34.7685C8.6333 36.77 8.60893 36.6923 9.51786 36.6192C10.4677 36.5432 10.7868 36.0332 9.88462 36.0332C9.55931 36.0332 9.29293 35.9939 9.29293 35.9459C9.29293 35.5356 9.60537 35.198 9.98518 35.198C10.2377 35.198 10.4444 35.104 10.4444 34.9892C10.4444 34.8744 10.2861 34.7804 10.0927 34.7804C9.63973 34.7804 9.48523 34.6048 9.61459 34.238C9.67139 34.077 9.96772 33.9452 10.2731 33.9452C10.6387 33.9452 10.8283 33.8383 10.8283 33.6321C10.8283 33.4016 10.6076 33.3189 9.99286 33.3189H9.15724L8.9373 34.7685ZM11.2845 33.6843C11.3703 34.0039 11.7879 36.4167 11.7879 36.5936C11.7879 36.6299 11.9596 36.6595 12.1696 36.6595C12.4544 36.6595 12.7471 36.2357 13.3232 34.9892C13.9001 33.7408 14.0226 33.3189 13.808 33.3189C13.6493 33.3189 13.2451 33.9029 12.9047 34.6238C12.2942 35.9171 12.2874 35.9231 12.1569 35.3024C12.0846 34.9579 12.0149 34.3706 12.0024 33.9974C11.9844 33.4588 11.898 33.3189 11.5831 33.3189C11.2956 33.3189 11.2133 33.4197 11.2845 33.6843ZM14.311 34.7685C14.0341 36.5923 14.0354 36.6595 14.3506 36.6595C14.5229 36.6595 14.6845 36.1716 14.8304 35.2099C15.1073 33.3861 15.106 33.3189 14.7908 33.3189C14.6185 33.3189 14.4569 33.8068 14.311 34.7685ZM15.4626 34.7685C15.1505 36.8243 15.115 36.7295 16.1477 36.6027C18.4191 36.3242 18.6311 33.3189 16.3794 33.3189H15.6825L15.4626 34.7685ZM18.7252 34.7685C18.4212 36.77 18.3968 36.6923 19.3057 36.6192C20.2555 36.5432 20.5747 36.0332 19.6725 36.0332C19.3472 36.0332 19.0808 35.9939 19.0808 35.9459C19.0808 35.5356 19.3933 35.198 19.7731 35.198C20.0256 35.198 20.2323 35.104 20.2323 34.9892C20.2323 34.8744 20.074 34.7804 19.8805 34.7804C19.4276 34.7804 19.2731 34.6048 19.4025 34.238C19.4593 34.077 19.7556 33.9452 20.0609 33.9452C20.4265 33.9452 20.6162 33.8383 20.6162 33.6321C20.6162 33.4016 20.3955 33.3189 19.7807 33.3189H18.9451L18.7252 34.7685ZM20.8363 34.7685C20.5592 36.5929 20.5607 36.6595 20.877 36.6595C21.0413 36.6595 21.204 36.253 21.3163 35.5634L21.4948 34.4672L22.0183 35.5634C22.3062 36.1662 22.6572 36.6595 22.7983 36.6595C22.9666 36.6595 23.1305 36.1612 23.2748 35.2099C23.5544 33.3688 23.5525 33.3189 23.2071 33.3189C23.0255 33.3189 22.9121 33.5312 22.9 33.893C22.8894 34.2087 22.8133 34.7021 22.7307 34.9892C22.5895 35.4797 22.5536 35.4448 22.136 34.415C21.4936 32.8307 21.1148 32.9339 20.8363 34.7685ZM24.8779 33.5377C24.3277 33.7778 23.83 35.0186 23.9959 35.7369C24.2202 36.7099 25.5784 36.8738 26.2933 36.0144C26.61 35.634 26.6067 35.6156 26.2229 35.6156C26.0016 35.6156 25.7673 35.7095 25.702 35.8244C25.499 36.1818 24.862 36.0536 24.6445 35.6116C24.3336 34.9796 24.7923 34.0678 25.4635 33.9837C25.7531 33.9473 25.9899 34.0177 25.9899 34.1403C25.9899 34.2626 26.1626 34.3628 26.3737 34.3628C26.8516 34.3628 26.8633 34.1142 26.4066 33.6644C26.0198 33.2838 25.5489 33.2445 24.8779 33.5377ZM27.3615 34.7685C27.0846 36.5923 27.0859 36.6595 27.4011 36.6595C27.5734 36.6595 27.735 36.1716 27.8809 35.2099C28.1578 33.3861 28.1565 33.3189 27.8413 33.3189C27.669 33.3189 27.5074 33.8068 27.3615 34.7685ZM29.0182 34.6238C28.1233 36.4965 28.0718 36.6595 28.3745 36.6595C28.5182 36.6595 28.6854 36.5186 28.7462 36.3464C28.8155 36.1499 29.109 36.0332 29.5345 36.0332C30.0089 36.0332 30.2121 36.1271 30.2121 36.3464C30.2121 36.5186 30.3417 36.6595 30.5 36.6595C30.8455 36.6595 30.8474 36.6096 30.5677 34.7685C30.2751 32.8399 29.888 32.8038 29.0182 34.6238ZM31.7757 34.7685C31.4972 36.6021 31.4989 36.6595 31.8308 36.6595C31.9858 36.6595 32.1323 36.4161 32.1666 36.1014C32.2524 35.3128 32.6476 35.2634 32.8007 36.0221C32.8882 36.4553 33.0443 36.6595 33.288 36.6595C33.6049 36.6595 33.6227 36.585 33.4417 36.0198C33.2652 35.4688 33.2932 35.3231 33.6436 34.9677C34.4677 34.1323 33.9785 33.3189 32.6518 33.3189H31.9956L31.7757 34.7685ZM34.4626 34.7685C34.1856 36.5923 34.187 36.6595 34.5021 36.6595C34.6744 36.6595 34.836 36.1716 34.9819 35.2099C35.2588 33.3861 35.2575 33.3189 34.9424 33.3189C34.77 33.3189 34.6084 33.8068 34.4626 34.7685ZM36.4794 33.5554C35.9415 33.8956 35.5515 35.0725 35.7699 35.6972C36.3365 37.3189 38.4646 36.5892 38.4646 34.7733C38.4646 33.5473 37.4634 32.933 36.4794 33.5554ZM4.22761 34.2756C4.05584 34.7627 4.06851 34.7804 4.59091 34.7804C4.9427 34.7804 5.07071 34.6691 5.07071 34.3628C5.07071 33.8551 4.40033 33.7855 4.22761 34.2756ZM6.72639 34.2645C6.54273 34.785 6.56672 34.813 7.13384 34.742C7.44801 34.7027 7.66162 34.5493 7.66162 34.3628C7.66162 33.9237 6.87571 33.8411 6.72639 34.2645ZM16.1128 34.4541C16.0564 34.7485 15.9652 35.2241 15.9105 35.5112C15.8264 35.9513 15.8821 36.0332 16.2646 36.0332C16.8906 36.0332 17.3961 35.3669 17.3199 34.6422C17.2706 34.1737 17.1484 34.0359 16.7365 33.9843C16.3099 33.9308 16.1968 34.0158 16.1128 34.4541ZM32.4436 34.2645C32.2599 34.785 32.2839 34.813 32.851 34.742C33.1652 34.7027 33.3788 34.5493 33.3788 34.3628C33.3788 33.9237 32.5929 33.8411 32.4436 34.2645ZM36.6069 34.1956C36.0419 34.9877 36.2213 36.0332 36.9224 36.0332C37.4968 36.0332 37.9165 35.4316 37.8513 34.7021C37.8043 34.176 37.6968 34.0375 37.2966 33.9868C37.0237 33.9523 36.7134 34.0463 36.6069 34.1956ZM29.4725 34.6923C29.1633 35.4306 29.1963 35.6156 29.6364 35.6156C29.9333 35.6156 30.0202 35.4763 30.0202 35.0015C30.0202 34.1908 29.7471 34.0367 29.4725 34.6923Z" fill="#160000"/>
</svg>
