<svg width="32" height="32" viewBox="0 0 32 32" fill="none" xmlns="http://www.w3.org/2000/svg">
<path fill-rule="evenodd" clip-rule="evenodd" d="M14.8695 3.49379L14.323 3.98758H10.0658H5.80881L5.85042 4.93988L5.89219 5.89219L6.57432 5.93564C7.11805 5.97034 7.23952 6.02283 7.17363 6.19467C7.12821 6.31317 6.4836 8.51279 5.74137 11.0826C4.99913 13.6524 4.3606 15.8056 4.3225 15.8673C4.28427 15.9291 3.97121 15.9796 3.62655 15.9796H3V16.5868C3 18.672 5.53073 20.5396 8.03903 20.3054C10.2532 20.0986 12.1378 18.4423 12.2156 16.6345L12.2409 16.0501L11.5532 15.9796L10.8658 15.909L10.6143 15.0625C9.69872 11.9785 8.07896 6.27325 8.07896 6.13231C8.07896 6.00519 8.89075 5.96273 11.3238 5.96273H14.5687V10.9716V15.9803L14.0126 16.4827C12.9639 17.4302 12.61 18.758 13.1019 19.8991C13.2262 20.1876 13.4193 20.8046 13.5308 21.2701C13.6424 21.7357 13.8899 22.3534 14.0807 22.6427C14.2715 22.932 14.4277 23.3606 14.4277 23.595C14.4277 24.009 14.4085 24.0214 13.7575 24.0244C12.8656 24.0284 12.0537 24.418 11.4384 25.1366C10.7216 25.9742 10.5995 26.5747 10.6476 29.0297L10.689 31.1459L16.2265 31.1829L21.7639 31.2197L21.7608 28.855C21.7583 26.8646 21.7168 26.4009 21.4988 25.9259C20.9734 24.7804 19.8391 24.03 18.6249 24.0244L17.9547 24.0212V23.5275C17.9547 23.2559 18.0065 23.0337 18.0698 23.0337C18.2634 23.0337 18.7697 22.0163 18.9476 21.2701C19.0402 20.8822 19.2037 20.2927 19.3112 19.9602C19.6099 19.0362 19.5622 18.0789 19.1892 17.5097C19.0145 17.2434 18.7483 16.7857 18.5973 16.4928C18.4465 16.1998 18.2084 15.8987 18.0683 15.8238C17.8304 15.6964 17.8136 15.3708 17.8136 10.8912C17.8136 7.13893 17.8527 6.07997 17.9932 6.02607C18.092 5.98812 19.5763 5.97429 21.2917 5.99517L24.4108 6.03327L22.9815 10.9711L21.5523 15.909L20.8469 15.9796L20.1415 16.0501L20.189 16.6144C20.3012 17.9462 21.3074 19.2473 22.7302 19.9005C23.3957 20.2061 23.7372 20.2675 24.7972 20.2723C25.8745 20.2772 26.1854 20.2229 26.8494 19.9134C28.3559 19.211 29.3295 17.9767 29.4137 16.6623L29.4529 16.0501L28.7608 15.9796L28.0688 15.909L26.6407 10.9711L25.2128 6.03327L25.8868 5.99066L26.5607 5.94791V4.96781V3.98758H22.2658C18.2919 3.98758 17.957 3.96853 17.7864 3.73363C17.4179 3.22601 16.9169 3 16.1601 3C15.5079 3 15.3486 3.06095 14.8695 3.49379ZM15.2921 3.86004C14.62 4.4863 14.6209 5.44213 15.2943 6.05147C15.7314 6.44706 16.7053 6.40756 17.1652 5.97542C17.8351 5.3462 17.7317 4.11455 16.9749 3.70964C16.5061 3.45866 15.6398 3.53611 15.2921 3.86004ZM6.38597 4.97515V5.3984H10.301H14.216V4.97515V4.5519H10.301H6.38597V4.97515ZM18.2369 4.97515V5.3984H22.1166H25.9964V4.97515V4.5519H22.1166H18.2369V4.97515ZM15.1331 11.2175C15.1331 15.4588 15.1477 15.7214 15.38 15.6223C15.5158 15.5645 15.992 15.4865 16.4381 15.4492L17.2493 15.3814V11.0379V6.69452L16.7459 6.849C16.3894 6.95848 16.0809 6.96032 15.6878 6.85535L15.1331 6.70736V11.2175ZM24.6227 7.3332C24.5451 7.62693 24.0021 9.518 23.4157 11.5355C22.8294 13.5529 22.3063 15.3781 22.2532 15.5916L22.1566 15.9796H24.782C26.7886 15.9796 27.4071 15.9379 27.4064 15.8032C27.4055 15.6017 24.8971 6.93267 24.8164 6.85197C24.7873 6.8229 24.7001 7.03947 24.6227 7.3332ZM7.25179 7.88554C6.47739 10.5205 4.97515 15.7974 4.97515 15.8828C4.97515 15.936 6.14966 15.9796 7.58517 15.9796C9.32627 15.9796 10.1952 15.9299 10.1952 15.8303C10.1952 15.5642 7.76096 7.16588 7.64711 7.03904C7.58644 6.97132 7.40854 7.35224 7.25179 7.88554ZM15.4653 16.1837C14.8436 16.4542 13.9346 17.308 13.6662 17.8736C13.422 18.3881 13.3717 19.1802 13.5638 19.4833C13.7093 19.7127 13.8585 19.2494 13.8614 18.5593C13.8646 17.8234 14.2411 17.7245 15.5741 18.1096L16.6898 18.432L17.3862 18.1377C18.1662 17.8081 18.3311 17.8644 18.7099 18.5896L18.931 19.0128L18.9366 18.5734C18.9397 18.3317 18.8224 17.9814 18.6758 17.795C18.5292 17.6086 18.3119 17.2233 18.1931 16.9389C18.067 16.637 17.799 16.3294 17.5495 16.2005C17.0282 15.931 16.0641 15.9231 15.4653 16.1837ZM3.6185 17.0024C3.84297 18.1531 5.21358 19.3603 6.62863 19.6542C8.86563 20.1185 11.042 18.9337 11.6138 16.94L11.7273 16.5439H7.6282H3.52906L3.6185 17.0024ZM20.8305 17.0024C21.055 18.1531 22.4256 19.3603 23.8407 19.6542C26.0777 20.1185 28.254 18.9337 28.8258 16.94L28.9394 16.5439H24.8402H20.7411L20.8305 17.0024ZM14.4277 18.7415C14.4277 18.9582 14.3233 19.5075 14.1956 19.9623C13.9995 20.6615 13.991 20.8809 14.141 21.3824C14.5006 22.5846 15.2026 23.1748 16.2733 23.1748C17.5751 23.1748 18.4328 22.087 18.4427 20.4237C18.4458 19.8805 18.3654 19.2393 18.2638 18.9987L18.0791 18.5614L17.3117 18.775C16.6198 18.9675 16.4643 18.9664 15.7328 18.763C15.2866 18.639 14.8104 18.4948 14.6746 18.4426C14.4758 18.3662 14.4277 18.4245 14.4277 18.7415ZM14.992 23.8861C14.992 24.0057 15.2643 24.3708 15.5972 24.6976L16.2025 25.2916L16.7964 24.6863C17.6848 23.7811 17.6179 23.6685 16.1909 23.6685C15.2047 23.6685 14.9918 23.7072 14.992 23.8861ZM12.8052 24.7861C12.274 25.0239 11.5293 25.8011 11.3325 26.323C11.2502 26.5414 11.1828 27.6049 11.1828 28.6861V30.6521H11.9587H12.7347V28.818C12.7347 27.0781 12.7492 26.984 13.0168 26.984C13.2845 26.984 13.299 27.0781 13.299 28.818V30.6521H14.2066C15.2637 30.6521 15.1819 30.7796 15.4285 28.7475C15.66 26.8401 15.6637 26.9211 15.3447 26.917C15.1503 26.9146 14.8214 26.5531 14.2866 25.7543C13.8598 25.1169 13.4471 24.5956 13.3695 24.596C13.2919 24.5963 13.038 24.6819 12.8052 24.7861ZM14.2866 24.666C14.2866 24.7309 15.035 25.8919 15.2299 26.129C15.2579 26.1633 15.3879 26.0843 15.5185 25.9535C15.7414 25.7307 15.7218 25.6807 15.2045 25.1508C14.7198 24.6546 14.2866 24.4257 14.2866 24.666ZM17.185 25.1436C16.7243 25.6153 16.668 25.7354 16.8208 25.9195C16.9203 26.0394 17.0484 26.1375 17.1055 26.1375C17.1627 26.1375 17.4412 25.7883 17.7246 25.3615C18.1577 24.7092 18.1992 24.5856 17.9848 24.5856C17.8445 24.5856 17.4846 24.8367 17.185 25.1436ZM18.1433 25.7808C17.5412 26.6629 17.2534 26.9713 17.0729 26.9282C16.7605 26.8536 16.7538 27.2588 17.0377 29.1002C17.1512 29.8374 17.2454 30.4882 17.2468 30.5463C17.2482 30.6044 17.662 30.6521 18.1663 30.6521H19.0834V28.818C19.0834 27.0781 19.0979 26.984 19.3655 26.984C19.6332 26.984 19.6477 27.0781 19.6477 28.818V30.6521H20.4237H21.1996V28.651C21.1996 26.3334 20.9915 25.6649 20.0891 25.0837C19.0834 24.4362 19.0539 24.4468 18.1433 25.7808ZM16.0501 26.2786C15.9938 26.3697 16.0112 26.5077 16.0888 26.5853C16.1829 26.6794 16.264 26.6712 16.3323 26.5607C16.3886 26.4696 16.3712 26.3316 16.2936 26.254C16.1995 26.1599 16.1184 26.1681 16.0501 26.2786ZM15.9903 28.8502C15.896 29.5697 15.7874 30.2694 15.7486 30.4052C15.6912 30.6074 15.7696 30.6521 16.1817 30.6521C16.4585 30.6521 16.685 30.6199 16.685 30.5806C16.685 30.3754 16.2463 27.6269 16.2073 27.5879C16.1822 27.5628 16.0845 28.1308 15.9903 28.8502Z" fill="#741102"/>
</svg>
