<svg width="32" height="32" viewBox="0 0 32 32" fill="none" xmlns="http://www.w3.org/2000/svg">
<path fill-rule="evenodd" clip-rule="evenodd" d="M16.1346 6.23761L16.1575 6.47523L18.2499 6.4946L20.3424 6.51398L21.771 9.53139C23.1969 12.5427 23.1996 12.5495 23.1354 12.8936C22.996 13.6398 22.4997 14.3534 21.7688 14.8583C21.5979 14.9763 21.4581 15.1224 21.4581 15.1827C21.4581 15.2431 21.4066 15.392 21.3438 15.5136C21.2313 15.7311 21.2345 15.7413 21.5275 16.1211C21.9105 16.6176 22.1694 17.2595 22.2463 17.9034C22.2951 18.3122 22.2747 18.5918 22.1443 19.3051L21.9813 20.1962L22.1473 21.0637C22.2633 21.6693 22.2903 21.9544 22.2367 22.008C22.1945 22.0502 21.9692 22.0847 21.7359 22.0847H21.3119V22.8045V23.5244L21.8785 23.6909C23.2396 24.0909 24.2102 24.2909 25.2607 24.3881L25.7366 24.4322L25.8703 24.7552C25.9438 24.933 26.2149 25.3062 26.4727 25.5847C26.99 26.1434 27.0696 26.4164 26.7953 26.6907C26.6522 26.8338 26.5516 26.837 22.1139 26.837C18.5494 26.837 17.5726 26.8566 17.5504 26.9284C17.5349 26.9787 17.5024 27.1105 17.4781 27.2214C17.4538 27.3322 17.3386 27.5296 17.2222 27.6601L17.0106 27.8971L16.0981 27.9211C15.3637 27.9405 15.1407 27.922 14.9555 27.8262C14.6806 27.6841 14.44 27.3164 14.4396 27.038L14.4394 26.837H9.86984C5.39779 26.837 5.29719 26.8338 5.15411 26.6907C4.88659 26.4232 4.9608 26.1383 5.42828 25.638C5.74463 25.2995 6.21423 24.5897 6.21423 24.4502C6.21423 24.4444 6.57526 24.401 7.01656 24.3539C7.4578 24.3068 8.03356 24.2188 8.29603 24.1582C9.10925 23.9705 10.3785 23.6093 10.4445 23.5466C10.479 23.5139 10.4833 22.9746 10.4539 22.3482C10.4094 21.3974 10.3783 21.1838 10.266 21.0543C10.0271 20.7788 9.54084 18.7589 9.54084 18.042C9.54084 17.2662 9.84725 16.421 10.355 15.796C10.6679 15.4109 10.6766 15.3873 10.5727 15.2033C10.5132 15.0979 10.3544 14.9523 10.2198 14.8798C9.58807 14.5396 8.9544 13.645 8.81439 12.8955C8.75064 12.5541 8.75634 12.54 10.1685 9.55047L11.5867 6.54834L13.6893 6.51179L15.7919 6.47523L15.8148 6.23761C15.8318 6.06222 15.8736 6 15.9747 6C16.0758 6 16.1176 6.06222 16.1346 6.23761ZM19.9228 6.84094C19.9228 6.8625 19.3278 8.13795 18.6005 9.67527C17.3801 12.2553 17.2807 12.496 17.3089 12.8029C17.3727 13.4958 17.9645 14.4034 18.625 14.8212C18.7954 14.929 18.8992 15.0511 18.8992 15.1436C18.8992 15.2255 18.9512 15.3931 19.0148 15.5161C19.1274 15.7339 19.1244 15.747 18.8954 16.0321C18.7661 16.1929 18.5678 16.5102 18.4547 16.7371C18.0538 17.5415 17.9946 18.2585 18.2331 19.4194L18.3841 20.1539L18.214 21.0425C18.0953 21.6629 18.067 21.9544 18.1206 22.008C18.1628 22.0502 18.3896 22.0847 18.6246 22.0847H19.0518L19.0304 22.6147L19.0089 23.1448L18.4932 23.1909C18.2096 23.2162 17.7733 23.3195 17.5237 23.4203C17.2713 23.5223 17.0514 23.5736 17.0281 23.536C17.0051 23.4989 17.0084 23.338 17.0353 23.1787C17.0716 22.9638 17.119 22.8889 17.2188 22.8889C17.2928 22.8889 17.4075 22.8348 17.4737 22.7686C17.5788 22.6635 17.5909 22.4681 17.5702 21.215C17.5484 19.8912 17.534 19.758 17.3812 19.472C17.2902 19.3017 17.1354 19.1097 17.0371 19.0453L16.8585 18.9283L17.0015 18.6615C17.1707 18.3459 17.1902 17.7785 17.0418 17.4932C16.9135 17.2467 16.6672 17.0198 16.358 16.8636L16.1199 16.7432L16.1387 11.792L16.1575 6.84079L18.0401 6.82127C19.0755 6.81052 19.9228 6.81937 19.9228 6.84094ZM15.7797 6.853C15.8065 6.87976 15.8285 9.11546 15.8285 11.8212V16.7406L15.511 16.8811C15.0996 17.0631 14.8353 17.3536 14.7412 17.7274C14.6596 18.0514 14.7232 18.4791 14.8902 18.7306C14.9799 18.8658 14.9644 18.9069 14.73 19.1532C14.3496 19.5531 14.2931 19.8357 14.2931 21.3386C14.2931 22.7442 14.3277 22.8889 14.6639 22.8889C14.7828 22.8889 14.8049 22.9418 14.8049 23.2257C14.8049 23.5182 14.788 23.5555 14.677 23.509C14.239 23.3259 13.6443 23.1814 13.3286 23.1814H12.9621L13.0141 22.1761C13.0572 21.3426 13.0895 21.1453 13.203 21.0213C13.3566 20.8536 13.7079 19.5864 13.8573 18.6616C13.9361 18.1736 13.9382 17.9495 13.8678 17.5283C13.7675 16.9282 13.3966 16.1146 13.0301 15.6906C12.7908 15.4138 12.7856 15.395 12.8937 15.2065C12.9556 15.0986 13.1151 14.9517 13.2481 14.8801C13.6214 14.679 14.2073 14.0148 14.4189 13.5524C14.7591 12.8093 14.7384 12.6101 14.2034 11.4834C13.9457 10.9406 13.5725 10.1522 13.3743 9.73157C13.1759 9.31088 12.7951 8.50482 12.5281 7.94032C12.261 7.37575 12.0573 6.88919 12.0754 6.85907C12.1161 6.79129 15.7122 6.78537 15.7797 6.853ZM21.4836 9.74034C22.1538 11.1542 22.6917 12.3214 22.679 12.3341C22.648 12.3651 17.7923 12.3749 17.7614 12.344C17.7252 12.3078 20.1655 7.16979 20.219 7.16979C20.2443 7.16979 20.8134 8.32657 21.4836 9.74034ZM12.3552 8.39442C12.6721 9.06801 13.1915 10.1619 13.5096 10.8254C13.8277 11.4889 14.1169 12.1057 14.1522 12.1963L14.2164 12.3608L11.8969 12.3692C9.70614 12.3771 9.31097 12.3711 9.26608 12.3287C9.23245 12.2969 11.6829 7.16979 11.7317 7.16979C11.7577 7.16979 12.0383 7.72084 12.3552 8.39442ZM22.7734 12.8908C22.7721 13.1939 22.4163 13.8249 22.0402 14.1913C21.8354 14.3908 21.6288 14.5537 21.5812 14.5531C21.5336 14.5525 21.4064 14.392 21.2987 14.1965C21.1547 13.9354 21.0173 13.7996 20.782 13.6857C20.1195 13.365 19.3994 13.5784 19.0586 14.1965C18.9509 14.392 18.8425 14.5525 18.8177 14.5531C18.6857 14.5562 18.0085 13.7723 17.8454 13.4276C17.4851 12.6661 17.2815 12.7263 20.2152 12.7263H22.7741L22.7734 12.8908ZM14.2931 12.8771C14.2931 13.1477 13.9363 13.79 13.5921 14.1392C13.4067 14.3272 13.2293 14.481 13.1979 14.481C13.1665 14.481 13.1041 14.3357 13.0594 14.1582C12.9569 13.7513 12.6661 13.4022 12.2855 13.2293C11.5152 12.8794 10.6255 13.319 10.4004 14.1607C10.3533 14.3369 10.2875 14.481 10.254 14.481C10.2207 14.481 10.0496 14.333 9.87364 14.1521C9.52599 13.7943 9.17528 13.1629 9.17528 12.8948V12.7263H11.7342C14.27 12.7263 14.2931 12.7277 14.2931 12.8771ZM12.0998 13.5091C12.2703 13.5714 12.5418 13.8393 12.655 14.057C13.0936 14.8998 12.0547 15.8555 11.24 15.3587C10.5395 14.9316 10.5469 13.9099 11.2529 13.5749C11.4956 13.4597 11.8825 13.4297 12.0998 13.5091ZM20.7131 14.0442C21.1407 14.305 21.2848 14.9062 21.0227 15.3361C20.619 15.9981 19.7898 16.0129 19.3576 15.3658C18.9365 14.7355 19.4053 13.8966 20.1787 13.8966C20.3433 13.8966 20.5769 13.9611 20.7131 14.0442ZM12.6939 15.85C13.1647 16.3622 13.5574 17.2411 13.5605 17.7893C13.562 18.0611 13.5594 18.0635 13.2673 18.0635C13.0945 18.0635 12.9615 18.1013 12.9457 18.1549C12.931 18.2052 12.8109 18.8299 12.6787 19.5433L12.4385 20.8404L12.5865 21.0055C12.7313 21.1674 12.7324 21.2007 12.641 22.633C12.5897 23.4373 12.5456 24.1035 12.543 24.1135C12.5406 24.1236 12.3912 24.1318 12.2112 24.1318H11.8839L11.8639 22.8706C11.847 21.8072 11.8267 21.6094 11.7342 21.6094C11.6417 21.6094 11.6214 21.8072 11.6045 22.8706L11.5845 24.1318H11.2572C11.0772 24.1318 10.9274 24.1236 10.9243 24.1135C10.9213 24.1035 10.874 23.4373 10.8194 22.633C10.7213 21.1882 10.722 21.1689 10.8709 21.01L11.0216 20.8492L10.7954 19.6574C10.671 19.0019 10.5599 18.3834 10.5485 18.2828C10.5306 18.124 10.4871 18.0971 10.2171 18.0776C9.9178 18.0559 9.9064 18.0461 9.9064 17.81C9.9064 17.245 10.3382 16.2554 10.759 15.8558L10.9665 15.6587L11.3203 15.7752C11.6637 15.8883 12.003 15.863 12.395 15.6952C12.4668 15.6645 12.575 15.7205 12.6939 15.85ZM21.2402 16.3205C21.5782 16.7843 21.7377 17.1242 21.8594 17.6408C22.0091 18.2754 22.0103 18.2715 21.6611 18.297C21.3573 18.319 21.3514 18.3247 21.2939 18.6484C21.2617 18.8294 21.1481 19.4289 21.0413 19.9808C20.8526 20.9557 20.8509 20.9884 20.9811 21.1323C21.1436 21.3118 21.4349 21.3241 21.6173 21.159C21.7823 21.0098 21.7945 21.0223 21.8577 21.4047L21.9084 21.7118L21.4456 21.7337L20.9829 21.7557L20.9628 22.9437L20.9427 24.1318H20.1787H19.4146L19.3945 22.9437L19.3744 21.7557L18.9117 21.7337L18.4489 21.7118L18.4996 21.4047C18.5628 21.0223 18.575 21.0098 18.74 21.159C18.9405 21.3405 19.2401 21.3129 19.3796 21.1001C19.4899 20.9318 19.4852 20.8546 19.3101 19.9486C19.2068 19.4144 19.0959 18.8294 19.0636 18.6484C19.0072 18.3324 18.9934 18.3179 18.7144 18.2828C18.4334 18.2475 18.4246 18.238 18.4437 17.9904C18.4803 17.5159 18.6785 16.9821 18.9909 16.5162C19.2519 16.1271 19.3309 16.0568 19.4842 16.077C19.8812 16.1295 20.6278 16.1224 20.8131 16.0644C20.9888 16.0095 21.0328 16.0358 21.2402 16.3205ZM16.1752 17.1639C16.4175 17.2116 16.7669 17.596 16.8186 17.8717C16.9135 18.3773 16.4577 18.9399 15.9528 18.9406C15.5119 18.9411 15.0252 18.4897 15.0245 18.0794C15.0241 17.817 15.207 17.4462 15.3992 17.3204C15.604 17.1862 15.942 17.118 16.1752 17.1639ZM13.5139 18.4104C13.5521 18.4721 13.2992 19.7463 13.1148 20.4214C13.0626 20.6124 12.9774 20.7687 12.9254 20.7687C12.8 20.7687 12.8023 20.7396 13.0109 19.6758C13.1098 19.1711 13.2003 18.6762 13.2119 18.576C13.2325 18.3982 13.4371 18.2861 13.5139 18.4104ZM10.2285 18.5205C10.6274 20.5392 10.6803 20.9973 10.4911 20.7933C10.352 20.6433 9.87518 18.5387 9.95209 18.4143C10.0256 18.2954 10.1971 18.3612 10.2285 18.5205ZM21.8558 18.9957C21.7587 19.67 21.4221 20.8662 21.3198 20.9002C21.2427 20.9258 21.2285 20.8831 21.2609 20.7234C21.2845 20.6075 21.3796 20.0933 21.4723 19.5807C21.615 18.7918 21.6612 18.6486 21.7733 18.6485C21.8896 18.6484 21.8996 18.6908 21.8558 18.9957ZM18.7523 18.7763C18.7519 18.8467 18.8384 19.3414 18.9446 19.8757C19.1254 20.7853 19.1338 21.0368 18.9779 20.8734C18.9081 20.8003 18.5733 19.473 18.495 18.9591C18.4521 18.6776 18.4621 18.6484 18.6003 18.6484C18.6973 18.6484 18.7527 18.6951 18.7523 18.7763ZM16.8145 19.3187C17.0384 19.4948 17.2176 19.8621 17.2176 20.1449C17.2176 20.2998 17.1835 20.33 17.0084 20.33C16.8107 20.33 16.7968 20.351 16.7532 20.7138C16.7278 20.9249 16.7066 21.7063 16.706 22.4502C16.7053 23.1942 16.6838 24.0249 16.6582 24.2963L16.6116 24.7898H16.3677H16.1239L16.1041 23.2362C16.0851 21.7379 16.0792 21.6826 15.9381 21.6826C15.7971 21.6826 15.7912 21.7379 15.7722 23.2362L15.7524 24.7898H15.5076C15.2815 24.7898 15.2592 24.7689 15.2174 24.5157C15.1925 24.3649 15.1716 23.7315 15.1709 23.1082C15.1703 22.485 15.1485 21.6049 15.1224 21.1525L15.075 20.33H14.8573C14.645 20.33 14.6404 20.3225 14.679 20.0348C14.7247 19.6943 14.8789 19.4303 15.1268 19.2678C15.2709 19.1733 15.3561 19.168 15.6276 19.2364C15.8647 19.2961 16.0331 19.2971 16.2389 19.2399C16.6058 19.138 16.5804 19.1345 16.8145 19.3187ZM17.2176 21.5686C17.2176 22.1563 17.1895 22.5233 17.1445 22.5233C17.0997 22.5233 17.0714 22.1714 17.0714 21.6138C17.0714 21.0863 17.1021 20.6852 17.1445 20.659C17.1918 20.6297 17.2176 20.9507 17.2176 21.5686ZM14.755 20.67C14.7824 20.6974 14.8049 21.1284 14.8049 21.6277C14.8049 22.3214 14.7833 22.5284 14.7135 22.5052C14.6489 22.4837 14.6161 22.2215 14.6014 21.6096C14.5824 20.813 14.6267 20.5417 14.755 20.67ZM19.0602 23.9593L19.082 24.4608H20.1787H21.2753L21.298 24.1866C21.3105 24.0359 21.3317 23.9125 21.3451 23.9125C21.3585 23.9125 21.8583 24.0433 22.4557 24.2032C23.6495 24.5227 24.6693 24.7167 25.155 24.7167C25.4062 24.7167 25.4788 24.7464 25.5163 24.8644C25.5421 24.9456 25.6759 25.1598 25.8137 25.3403C25.9514 25.5207 26.0642 25.6846 26.0642 25.7044C26.0642 25.7241 21.5239 25.7403 15.9747 25.7403C10.4255 25.7403 5.88523 25.7241 5.88523 25.7044C5.88523 25.6846 5.99797 25.5207 6.13571 25.3403C6.27353 25.1598 6.40732 24.9456 6.43313 24.8644C6.47056 24.7464 6.54316 24.7167 6.79445 24.7167C7.36129 24.7167 9.74847 24.2099 10.4503 23.9406C10.5277 23.9109 10.5608 23.9732 10.5779 24.1807L10.601 24.4608H11.7342H12.8674L12.8897 24.0221C12.902 23.7809 12.9396 23.5557 12.9733 23.5218C13.0731 23.4215 14.0599 23.6091 14.4818 23.8087L14.872 23.9933L14.8933 24.5561L14.9146 25.1188H15.9381H16.9617L16.9831 24.5928C17.0037 24.0882 17.0141 24.061 17.239 23.9255C17.5548 23.7353 18.1151 23.5654 18.6215 23.5064L19.0384 23.4579L19.0602 23.9593ZM26.5272 26.1546C26.6091 26.2365 26.5815 26.4537 26.4846 26.49C26.4343 26.5089 24.3434 26.528 21.8382 26.5325C19.3329 26.5369 17.252 26.5599 17.2138 26.5834C17.1757 26.607 17.1445 26.7541 17.1445 26.9103C17.1445 27.1052 17.0891 27.2587 16.9681 27.3995C16.7943 27.6015 16.7792 27.6046 15.9747 27.6046C15.1703 27.6046 15.1551 27.6015 14.9813 27.3995C14.8603 27.2587 14.8049 27.1052 14.8049 26.9103C14.8049 26.7541 14.7662 26.6023 14.7188 26.573C14.6713 26.5437 12.5904 26.5253 10.0944 26.5319C7.59839 26.5387 5.51184 26.5156 5.45767 26.4808C5.40342 26.4459 5.37096 26.3554 5.38551 26.2799C5.4111 26.1472 5.58174 26.1417 10.2913 26.1236L15.1705 26.1048V26.4911C15.1705 27.1059 15.2797 27.2025 15.9747 27.2025C16.6696 27.2025 16.7789 27.1059 16.7789 26.4917V26.1058H21.6287C24.2961 26.1058 26.5004 26.1278 26.5272 26.1546ZM16.4134 26.4714V26.837H15.9747H15.536V26.4714V26.1058H15.9747H16.4134V26.4714Z" fill="#580D0D"/>
</svg>
