<svg width="28" height="20" viewBox="0 0 28 20" fill="none" xmlns="http://www.w3.org/2000/svg">
<path fill-rule="evenodd" clip-rule="evenodd" d="M10.9379 3.21852C11.0423 3.34246 11.2835 3.46562 11.4739 3.49238C11.9367 3.55732 11.8825 3.78079 10.9373 5.70122C10.5053 6.57865 10.1517 7.38817 10.1516 7.50006C10.1509 7.91554 10.6593 8.6501 11.1523 8.94602C11.451 9.12551 11.9473 9.2518 12.3551 9.25212C12.9531 9.25258 13.137 9.16636 13.6837 8.62788C14.4773 7.84637 14.4554 7.57205 13.4288 5.43738L12.685 3.89127L13.1715 3.98704C13.4389 4.03978 14.0549 4.19642 14.5402 4.33538C15.269 4.54398 15.4508 4.66777 15.5848 5.04584C15.6738 5.29763 15.8823 5.57509 16.0479 5.66225C16.3315 5.81186 16.3482 6.04518 16.3353 9.68856C16.3279 11.8157 16.2672 13.3797 16.2006 13.164C15.5493 11.0557 13.2859 9.8643 11.2637 10.5652C10.8704 10.7015 10.4948 10.814 10.4294 10.8153C10.2546 10.8187 10.284 10.2801 10.4685 10.0984C10.5735 9.99497 10.3892 9.71297 9.91971 9.25931C9.33093 8.69032 9.17297 8.60863 8.97448 8.77091C8.65299 9.03366 8.08534 8.83507 8.08534 8.45981C8.08534 8.1919 7.96742 8.15732 7.05238 8.15732C6.14671 8.15732 6.01942 8.19362 6.01942 8.45199C6.01942 8.80503 5.41458 9.0033 5.10644 8.75135C4.93942 8.61489 4.73807 8.7249 4.19712 9.24773C3.58148 9.8427 3.52157 9.96085 3.67174 10.2856C3.85863 10.6893 3.62216 11.1306 3.21899 11.1306C3.05689 11.1306 3 11.3785 3 12.0843C3 12.9008 3.04481 13.0493 3.31259 13.1183C3.70877 13.2202 3.88167 13.7338 3.62311 14.0405C3.45848 14.236 3.54079 14.3911 4.11544 14.9677C4.62842 15.4823 4.8571 15.6179 5.00648 15.4959C5.34371 15.2205 5.93424 15.3946 5.99081 15.7862C6.03738 16.1092 6.1251 16.1383 7.05238 16.1383C7.97966 16.1383 8.06738 16.1092 8.11394 15.7862C8.18434 15.2984 8.81381 15.2173 8.96208 15.6769C9.13006 16.1985 10.1387 17.221 10.8252 17.5659C11.291 17.7999 11.7396 17.8722 12.6636 17.8621C13.3358 17.8548 14.9656 17.8967 16.2854 17.9553C17.6053 18.0139 18.8745 18.015 19.1062 17.9578C19.6891 17.8136 19.6648 17.216 19.0506 16.5832C18.7884 16.3129 18.5738 16.0076 18.5738 15.9046C18.5738 15.5514 17.9924 15.1993 17.4091 15.1993H16.8258V10.5341V5.86882L17.2628 5.55569L17.6998 5.24271L19.1301 5.65334C20.2714 5.98118 20.5506 6.11842 20.5126 6.33281C20.4863 6.48054 20.1022 7.34154 19.6589 8.24605C18.871 9.85444 18.8581 9.90358 19.0767 10.4691C19.6683 11.9998 21.9251 12.2093 22.7635 10.8114C23.1532 10.1621 23.0874 9.74224 22.3699 8.29878C21.37 6.28727 21.3786 6.32561 21.9465 6.40761C22.3062 6.45972 22.4098 6.42248 22.3553 6.26098C22.3127 6.13532 21.3398 5.78275 20.031 5.41876C18.7927 5.07448 17.7796 4.71424 17.7794 4.61832C17.7794 4.52239 17.631 4.25823 17.4498 4.03148C17.0686 3.55419 16.5251 3.49895 15.8831 3.87249C15.4686 4.11348 15.3513 4.09846 13.4424 3.55951C11.2257 2.93355 10.6293 2.85234 10.9379 3.21852ZM11.5837 5.39513C11.2328 6.14283 10.9458 6.82372 10.9458 6.90822C10.9458 6.99601 11.4912 7.06189 12.2172 7.06189C13.2118 7.06189 13.4885 7.01338 13.4885 6.83874C13.4885 6.71605 13.2034 6.03517 12.8551 5.32565L12.2215 4.03571L11.5837 5.39513ZM16.0922 4.31426C15.8538 4.92597 16.4355 5.56069 16.945 5.24474C17.545 4.87261 17.286 4.0886 16.5629 4.0886C16.3524 4.0886 16.1405 4.19016 16.0922 4.31426ZM20.3416 7.90819C19.9798 8.67498 19.7111 9.32926 19.7446 9.36244C19.7783 9.39546 20.3737 9.40187 21.0679 9.37668L22.33 9.33098L21.6649 7.92258L20.9997 6.51418L20.3416 7.90819ZM10.7095 7.52807C10.6566 7.61242 10.6887 7.82008 10.7807 7.98956C11.2727 8.89469 12.5887 9.06746 13.3418 8.32586C14.1644 7.51587 14.0109 7.37487 12.306 7.37487C11.4808 7.37487 10.7625 7.44388 10.7095 7.52807ZM6.38668 8.77044C6.29196 9.12708 5.50024 9.48669 5.12361 9.34444C4.74793 9.20251 4.08079 9.84693 4.20475 10.2319C4.3376 10.6438 3.98926 11.3979 3.62264 11.4923C3.17973 11.6063 3.18879 12.6257 3.63376 12.7404C4.0061 12.8362 4.32489 13.5596 4.2038 14.0343C4.08858 14.4868 4.79687 15.1712 5.11312 14.9126C5.40441 14.6746 6.28942 15.0026 6.39144 15.3862C6.49649 15.7822 7.54947 15.7855 7.67692 15.3902C7.72635 15.237 7.98856 15.0292 8.25967 14.9284C8.78696 14.7325 8.82541 14.297 8.30655 14.3961C8.14128 14.4277 7.61256 14.4856 7.13184 14.5249C6.03738 14.6142 5.31844 14.1984 4.77876 13.1637C3.55541 10.8175 6.61679 8.462 8.62867 10.2015C8.92013 10.4535 9.24956 10.8758 9.36065 11.1402C9.54197 11.5713 9.58774 11.596 9.80577 11.3815C9.9979 11.1923 10.0122 11.0632 9.87395 10.7644C9.7465 10.4888 9.74681 10.3396 9.87538 10.213C10.1541 9.93848 9.40403 9.23506 8.95175 9.34679C8.51664 9.45446 7.60859 9.01769 7.60859 8.70096C7.60859 8.32632 6.48775 8.39002 6.38668 8.77044ZM19.4851 9.97259C19.3047 10.15 19.7487 10.8414 20.1861 11.0641C20.8985 11.4268 21.5586 11.3453 22.0823 10.8297C22.9029 10.0216 22.75 9.8787 21.0636 9.8787C20.2477 9.8787 19.5374 9.92095 19.4851 9.97259ZM6.02927 10.3211C4.99933 10.865 4.62397 12.1583 5.21784 13.1174C5.65105 13.8169 6.24683 14.156 7.04284 14.156C7.98649 14.156 8.57162 13.7055 8.92903 12.7035C9.20634 11.926 9.20634 11.8772 8.92903 11.3206C8.35677 10.1718 7.11944 9.74537 6.02927 10.3211ZM6.00718 11.1186C5.61259 11.5071 5.53234 11.702 5.5727 12.1724C5.64215 12.9838 6.01942 13.0606 6.01942 12.2633C6.01942 11.4918 6.39494 11.1306 7.19731 11.1306C7.98459 11.1306 7.88288 10.7577 7.07733 10.6907C6.59963 10.651 6.40177 10.73 6.00718 11.1186ZM10.9673 11.22C8.90932 12.2484 8.45911 14.7169 10.0244 16.3891C11.6694 18.1465 14.409 17.7501 15.4772 15.6001C15.8513 14.8472 15.9021 14.5903 15.8241 13.8462C15.5759 11.4785 13.1138 10.1471 10.9673 11.22ZM8.13651 11.398C8.01891 11.4383 7.98125 11.6555 8.03528 11.983C8.14986 12.6786 7.64498 13.2083 6.93573 13.1365C6.32486 13.0747 6.15418 13.4268 6.72628 13.5681C7.296 13.7089 8.05514 13.3634 8.33118 12.8377C8.70162 12.1323 8.58179 11.2456 8.13651 11.398ZM11.2239 11.6896C10.6913 11.9742 10.6337 12.3093 11.1445 12.1534C12.046 11.8783 12.2172 11.8744 12.2172 12.1295C12.2172 12.2688 12.3244 12.3825 12.4556 12.3825C12.5867 12.3825 12.6939 12.2769 12.6939 12.1478C12.6939 11.5861 13.9753 12.1345 14.4484 12.8988C14.8188 13.4969 14.8503 13.9474 14.5215 13.9474C14.3904 13.9474 14.2831 14.053 14.2831 14.1821C14.2831 14.3112 14.3904 14.4169 14.5215 14.4169C14.8255 14.4169 14.8283 14.877 14.527 15.3004C14.3991 15.4804 14.3395 15.6721 14.3947 15.7265C14.812 16.1373 15.2894 15.0837 15.2051 13.9376C15.0915 12.3921 14.0266 11.4369 12.4316 11.4498C12.0077 11.4533 11.4644 11.5611 11.2239 11.6896ZM9.88698 13.1235C9.16359 14.8283 10.5594 16.9198 12.4209 16.9204C13.0691 16.9207 14.1242 16.5542 14.1242 16.3289C14.1242 16.0378 13.9087 16.0026 13.4763 16.2228C12.9054 16.5134 12.6939 16.5116 12.6939 16.2165C12.6939 16.0874 12.5867 15.9818 12.4556 15.9818C12.3244 15.9818 12.2172 16.0874 12.2172 16.2165C12.2172 16.7669 10.9679 16.1251 10.4683 15.3181C10.091 14.709 10.0656 14.4169 10.3896 14.4169C10.5207 14.4169 10.628 14.3112 10.628 14.1821C10.628 14.053 10.5207 13.9474 10.3896 13.9474C10.0925 13.9474 10.0877 13.6798 10.3753 13.137C10.4975 12.9063 10.5567 12.6775 10.5068 12.6284C10.3018 12.4263 10.1219 12.5702 9.88698 13.1235ZM12.2172 13.7127C12.2172 14.3907 12.2348 14.4169 12.6939 14.4169C13.0118 14.4169 13.1707 14.3386 13.1707 14.1821C13.1707 14.053 13.0634 13.9474 12.9323 13.9474C12.7734 13.9474 12.6939 13.7909 12.6939 13.4779C12.6939 13.165 12.6145 13.0085 12.4556 13.0085C12.279 13.0085 12.2172 13.1911 12.2172 13.7127ZM15.8723 15.9818C15.7087 16.2827 15.7515 16.2947 16.9791 16.2947C17.6814 16.2947 18.256 16.2384 18.256 16.1696C18.256 15.8463 17.7961 15.6688 16.9585 15.6688C16.205 15.6688 16.0121 15.7243 15.8723 15.9818ZM14.8393 17.1603L14.3626 17.5451L16.7066 17.5459C18.5243 17.5465 19.0506 17.501 19.0506 17.3432C19.0506 16.8733 18.6595 16.7642 16.9926 16.7698C15.4513 16.775 15.2776 16.8065 14.8393 17.1603Z" fill="#160000"/>
</svg>
