<svg width="42" height="42" viewBox="0 0 42 42" fill="none" xmlns="http://www.w3.org/2000/svg">
<path fill-rule="evenodd" clip-rule="evenodd" d="M13.6095 8.22326C8.75797 11.0925 6.44185 12.5005 6.38165 12.617C6.32626 12.7242 6.29261 13.105 6.29196 13.6316L6.29088 14.4747H6.03653C5.8621 14.4747 5.72678 14.5301 5.60602 14.6509L5.42987 14.8269V16.4349C5.42987 17.9531 5.43819 18.0535 5.57861 18.232C5.70611 18.3941 5.78195 18.421 6.111 18.421H6.49473L6.51841 19.3465C6.54797 20.5042 6.59044 20.5735 7.27064 20.5735H7.7259V26.3136V32.0537H7.33716C7.12334 32.0537 6.8961 32.0738 6.83224 32.0983C6.58937 32.1915 6.50614 32.5179 6.50614 33.3775V34.2062H6.14415C5.85543 34.2062 5.74644 34.2419 5.60602 34.3824C5.4336 34.5547 5.42987 34.5831 5.42987 35.7098V36.861H4.85586C4.3775 36.861 4.25796 36.8849 4.13835 37.0045C3.95388 37.189 3.95388 37.5376 4.13835 37.722C4.28107 37.8647 4.3775 37.8655 20.9281 37.8655C37.4787 37.8655 37.5751 37.8647 37.7178 37.722C37.9023 37.5376 37.9023 37.189 37.7178 37.0045C37.5982 36.8849 37.4787 36.861 37.0003 36.861H36.4263V35.7098C36.4263 34.5831 36.4226 34.5547 36.2502 34.3824C36.1097 34.2419 36.0007 34.2062 35.712 34.2062H35.35V33.3775C35.35 32.5179 35.2668 32.1915 35.0239 32.0983C34.9601 32.0738 34.7328 32.0537 34.519 32.0537H34.1303V26.3136V20.5735H34.5855C35.2657 20.5735 35.3082 20.5042 35.3378 19.3465L35.3614 18.421H35.7452C36.0742 18.421 36.1501 18.3941 36.2776 18.232C36.418 18.0535 36.4263 17.9531 36.4263 16.4349V14.8269L36.2502 14.6509C36.1294 14.5301 35.9941 14.4747 35.8196 14.4747H35.5653L35.5642 13.6316C35.5636 13.1051 35.5299 12.7241 35.4745 12.6169C35.4156 12.5029 34.2183 11.7543 31.906 10.3859C29.992 9.25325 26.7818 7.35285 24.7722 6.16279C22.5003 4.81746 21.0485 3.99943 20.9335 4C20.8191 4.00065 18.0303 5.60873 13.6095 8.22326ZM20.5829 6.94366C20.4803 7.03923 20.4258 7.17527 20.4258 7.33606C20.4258 7.55519 20.3836 7.60922 20.0412 7.8282C19.3029 8.30054 19.0703 9.18214 19.4782 9.96294C19.739 10.462 20.1089 10.7213 20.7129 10.8283C21.2904 10.9306 21.5021 11.1003 21.5021 11.4612C21.5021 11.8028 21.2657 12.0352 20.918 12.0352C20.6142 12.0352 20.3943 11.8233 20.327 11.4659C20.2628 11.1248 20.092 10.9589 19.8048 10.9589C18.9432 10.9589 19.2109 12.418 20.1672 12.933C20.3909 13.0535 20.4258 13.1074 20.4258 13.3319C20.4258 13.6568 20.6041 13.829 20.9406 13.829C21.2563 13.829 21.4303 13.6479 21.4303 13.3194C21.4303 13.1092 21.469 13.0515 21.689 12.933C22.2904 12.6091 22.6367 11.9287 22.5543 11.2329C22.4738 10.5532 21.8797 9.93194 21.2271 9.84512C20.5562 9.75579 20.3541 9.60131 20.3541 9.17784C20.3541 8.83839 20.5723 8.63024 20.9281 8.63024C21.2526 8.63024 21.5021 8.83358 21.5021 9.09798C21.5021 9.47905 21.8895 9.80803 22.2162 9.70435C22.8528 9.5023 22.5864 8.31159 21.7891 7.79491C21.4834 7.59688 21.4303 7.52893 21.4303 7.33592C21.4303 6.88238 20.9081 6.64065 20.5829 6.94366ZM16.9818 9.8109C16.7884 10.0043 16.7922 10.3927 16.9893 10.5711C17.2203 10.7801 18.0665 10.7671 18.2823 10.5512C18.4886 10.3451 18.4822 9.96559 18.2696 9.79353C18.035 9.60354 17.1776 9.61509 16.9818 9.8109ZM23.5865 9.79353C23.374 9.96559 23.3676 10.3451 23.5738 10.5512C23.7897 10.7671 24.6359 10.7801 24.8669 10.5711C25.064 10.3927 25.0678 10.0043 24.8744 9.8109C24.6786 9.61509 23.8212 9.60354 23.5865 9.79353ZM6.50614 16.4837V17.4165H20.9281H35.35V16.4837V15.551H20.9281H6.50614V16.4837ZM12.5096 18.4686C12.4831 18.495 12.4615 18.9149 12.4615 19.4016C12.4615 20.4949 12.4133 20.5735 11.744 20.5735H11.3135V26.3136V32.0537H11.6984C11.9792 32.0537 12.1345 32.094 12.2724 32.2024C12.4592 32.3494 12.4615 32.3621 12.4615 33.2787V34.2062H15.1411H17.8206L18.3716 33.3789C19.0392 32.3765 19.187 32.2696 19.9056 32.2692L20.4258 32.269V26.8876V21.5063H18.4963H16.5668L17.5335 23.7127C18.485 25.8841 18.4998 25.9259 18.4681 26.3517C18.4026 27.2305 17.7961 28.0885 16.945 28.5063C16.5524 28.6991 16.4504 28.7173 15.762 28.7173C15.0736 28.7173 14.9716 28.6991 14.5791 28.5063C13.7251 28.0872 13.1239 27.2429 13.0559 26.3678C13.0211 25.9206 13.0244 25.9111 13.9694 23.7493L14.9178 21.5796L14.6941 21.3706C14.4354 21.129 14.4066 20.8837 14.6076 20.6353L14.7447 20.4659L17.5853 20.4456L20.4258 20.4253V19.9972C20.4258 19.498 20.5775 19.282 20.9281 19.282C21.2787 19.282 21.4303 19.498 21.4303 19.9972V20.4253L24.262 20.4456C27.3758 20.4679 27.2643 20.4511 27.357 20.9142C27.3966 21.1125 27.37 21.1763 27.1705 21.3627L26.9378 21.5801L27.8872 23.7495C28.8292 25.9019 28.8364 25.9224 28.8017 26.3595C28.7312 27.2474 28.1032 28.1288 27.2591 28.5244C26.8943 28.6954 26.7619 28.7173 26.0942 28.7173C25.4058 28.7173 25.3037 28.6991 24.9112 28.5063C24.0603 28.0886 23.4538 27.2307 23.3879 26.3517C23.356 25.9261 23.3708 25.8839 24.2974 23.7726C24.8154 22.592 25.256 21.5992 25.2763 21.5662C25.2967 21.5333 24.4397 21.5063 23.3719 21.5063H21.4303V26.8876V32.269L21.9505 32.2692C22.6691 32.2696 22.8169 32.3765 23.4846 33.3789L24.0355 34.2062H26.7151H29.3947V33.2787C29.3947 32.3621 29.3969 32.3494 29.5838 32.2024C29.7217 32.094 29.8769 32.0537 30.1578 32.0537H30.5427V26.3136V20.5735H30.1259C29.4596 20.5735 29.4368 20.5375 29.3947 19.4136L29.3588 18.4569L20.9583 18.4387C16.338 18.4286 12.5361 18.4421 12.5096 18.4686ZM8.80217 26.3136V32.0537H9.51968H10.2372V26.3136V20.5735H9.51968H8.80217V26.3136ZM31.619 26.3136V32.0537H32.3365H33.054V26.3136V20.5735H32.3365H31.619V26.3136ZM15.0601 23.892C14.6953 24.7307 14.3973 25.4409 14.3978 25.4706C14.3983 25.5002 15.0157 25.5244 15.7697 25.5244C17.0446 25.5244 17.1375 25.5155 17.0958 25.3988C16.9626 25.0256 15.7921 22.3693 15.7606 22.3684C15.7401 22.3678 15.4249 23.0535 15.0601 23.892ZM25.4325 23.8214C25.0883 24.6199 24.7861 25.3298 24.7611 25.3988C24.7187 25.5156 24.8113 25.5244 26.0865 25.5244C26.8405 25.5244 27.4579 25.5002 27.4584 25.4706C27.4599 25.3812 26.1358 22.3672 26.0956 22.3685C26.0751 22.3691 25.7767 23.023 25.4325 23.8214ZM6.50614 36.0718V36.861H20.9281H35.35V36.0718V35.2825H20.9281H6.50614V36.0718Z" fill="#160000"/>
</svg>
