<svg width="42" height="42" viewBox="0 0 42 42" fill="none" xmlns="http://www.w3.org/2000/svg">
<path fill-rule="evenodd" clip-rule="evenodd" d="M16.7006 7.40791C16.8677 7.63926 17.2537 7.86915 17.5583 7.9191C18.2987 8.04033 18.212 8.45747 16.6996 12.0423C16.0085 13.6802 15.4428 15.1913 15.4425 15.4001C15.4415 16.1757 16.2549 17.5469 17.0436 18.0992C17.5217 18.4343 18.3157 18.67 18.9682 18.6706C19.925 18.6715 20.2192 18.5105 21.0939 17.5054C22.3637 16.0466 22.3286 15.5345 20.686 11.5498L19.496 8.6637L20.2744 8.84247C20.7023 8.94092 21.6878 9.23332 22.4644 9.49272C23.6304 9.8821 23.9213 10.1132 24.1357 10.8189C24.278 11.2889 24.6116 11.8068 24.8766 11.9695C25.3305 12.2488 25.3571 12.6843 25.3366 19.4853C25.3246 23.456 25.2275 26.3754 25.1209 25.9729C24.079 22.0372 20.4574 19.8134 17.2219 21.1217C16.5926 21.3762 15.9917 21.5862 15.887 21.5885C15.6073 21.595 15.6543 20.5895 15.9495 20.2504C16.1176 20.0573 15.8226 19.5309 15.0715 18.6841C14.1295 17.6219 13.8767 17.4694 13.5592 17.7724C13.0448 18.2628 12.1365 17.8921 12.1365 17.1916C12.1365 16.6915 11.9479 16.627 10.4838 16.627C9.03474 16.627 8.83107 16.6948 8.83107 17.177C8.83107 17.836 7.86333 18.2062 7.37031 17.7359C7.10307 17.4811 6.78092 17.6865 5.91539 18.6624C4.93036 19.773 4.8345 19.9936 5.07479 20.5997C5.3738 21.3534 4.99545 22.1771 4.35038 22.1771C4.09103 22.1771 4 22.6398 4 23.9573C4 25.4815 4.0717 25.7587 4.50014 25.8876C5.13403 26.0777 5.41067 27.0364 4.99698 27.609C4.73356 27.9738 4.86527 28.2633 5.7847 29.3397C6.60547 30.3002 6.97136 30.5535 7.21037 30.3256C7.74993 29.8115 8.69478 30.1366 8.7853 30.8675C8.8598 31.4704 9.00016 31.5247 10.4838 31.5247C11.9675 31.5247 12.1078 31.4704 12.1823 30.8675C12.2949 29.957 13.3021 29.8057 13.5393 30.6636C13.8081 31.6372 15.4219 33.5459 16.5204 34.1897C17.2656 34.6264 17.9834 34.7614 19.4617 34.7427C20.5373 34.7289 23.145 34.8072 25.2567 34.9165C27.3684 35.026 29.3992 35.0281 29.77 34.9211C30.7026 34.6521 30.6637 33.5365 29.681 32.3552C29.2614 31.8507 28.9182 31.2808 28.9182 31.0886C28.9182 30.4293 27.9878 29.7721 27.0546 29.7721H26.1212V21.0636V12.3551L26.8205 11.7706L27.5197 11.1864L29.8081 11.9529C31.6342 12.5649 32.081 12.8211 32.0202 13.2212C31.978 13.497 31.3634 15.1042 30.6543 16.7926C29.3936 19.795 29.373 19.8867 29.7227 20.9424C30.6693 23.7995 34.2801 24.1907 35.6217 21.5812C36.2451 20.3692 36.1398 19.5855 34.9918 16.8911C33.392 13.1362 33.4057 13.2078 34.3145 13.3609C34.8899 13.4581 35.0557 13.3886 34.9684 13.0872C34.9003 12.8526 33.3437 12.1945 31.2495 11.515C29.2683 10.8724 27.6473 10.1999 27.6471 10.0209C27.6471 9.84179 27.4096 9.3487 27.1197 8.92543C26.5097 8.03449 25.6401 7.93137 24.6129 8.62865C23.9498 9.0785 23.7621 9.05046 20.7079 8.04442C17.1611 6.87597 16.2068 6.72436 16.7006 7.40791ZM17.734 11.4709C17.1726 12.8666 16.7133 14.1376 16.7133 14.2953C16.7133 14.4592 17.586 14.5822 18.7475 14.5822C20.3389 14.5822 20.7816 14.4916 20.7816 14.1656C20.7816 13.9366 20.3255 12.6656 19.7681 11.3412L18.7543 8.93332L17.734 11.4709ZM24.9475 9.45328C24.5661 10.5952 25.4967 11.78 26.3119 11.1902C27.272 10.4955 26.8576 9.03205 25.7007 9.03205C25.3638 9.03205 25.0248 9.22164 24.9475 9.45328ZM31.7466 16.1619C31.1677 17.5933 30.7377 18.8146 30.7913 18.8766C30.8452 18.9382 31.798 18.9502 32.9086 18.9031L34.928 18.8178L33.8639 16.1888L32.7995 13.5598L31.7466 16.1619ZM16.3353 15.4524C16.2506 15.6099 16.3019 15.9975 16.4492 16.3138C17.2364 18.0034 19.342 18.3259 20.5469 16.9416C21.863 15.4296 21.6174 15.1664 18.8896 15.1664C17.5692 15.1664 16.4199 15.2952 16.3353 15.4524ZM9.41868 17.7715C9.26714 18.4372 8.00038 19.1085 7.39777 18.843C6.79668 18.578 5.72927 19.7809 5.9276 20.4995C6.14017 21.2684 5.58281 22.6761 4.99622 22.8522C4.28758 23.0652 4.30207 24.968 5.01402 25.1821C5.60976 25.3609 6.11982 26.7113 5.92607 27.5973C5.74173 28.4421 6.875 29.7195 7.38099 29.2369C7.84706 28.7926 9.26307 29.4049 9.42631 30.1209C9.59438 30.8602 11.2792 30.8663 11.4831 30.1284C11.5622 29.8425 11.9817 29.4545 12.4155 29.2664C13.2591 28.9007 13.3207 28.0878 12.4905 28.2727C12.226 28.3317 11.3801 28.4397 10.6109 28.5131C8.8598 28.6799 7.7095 27.9037 6.84601 25.9723C4.88866 21.5926 9.78686 17.1957 13.0059 20.4429C13.4722 20.9132 13.9993 21.7016 14.177 22.195C14.4672 22.9997 14.5404 23.0459 14.8892 22.6454C15.1966 22.2922 15.2195 22.0512 14.9983 21.4936C14.7944 20.9792 14.7949 20.7005 15.0006 20.4642C15.4466 19.9518 14.2464 18.6388 13.5228 18.8473C12.8266 19.0483 11.3737 18.233 11.3737 17.6418C11.3737 16.9425 9.5804 17.0614 9.41868 17.7715ZM30.3761 20.0155C30.0875 20.3468 30.798 21.6373 31.4977 22.053C32.6376 22.7301 33.6938 22.5779 34.5316 21.6154C35.8446 20.1069 35.6 19.8402 32.9018 19.8402C31.5964 19.8402 30.4598 19.9191 30.3761 20.0155ZM8.84684 20.666C7.19893 21.6814 6.59835 24.0954 7.54855 25.8858C8.24168 27.1915 9.19493 27.8246 10.4686 27.8246C11.9784 27.8246 12.9146 26.9836 13.4864 25.1132C13.9301 23.6619 13.9301 23.5708 13.4864 22.5318C12.5708 20.3874 10.5911 19.5914 8.84684 20.666ZM8.81149 22.1546C8.18015 22.88 8.05174 23.2436 8.11633 24.1217C8.22744 25.6363 8.83107 25.7798 8.83107 24.2915C8.83107 22.8513 9.4319 22.1771 10.7157 22.1771C11.9753 22.1771 11.8126 21.481 10.5237 21.356C9.7594 21.2818 9.44284 21.4293 8.81149 22.1546ZM16.7477 22.3439C13.4549 24.2637 12.7346 28.8715 15.2391 31.993C17.871 35.2734 22.2543 34.5335 23.9635 30.5202C24.5621 29.1148 24.6434 28.6352 24.5186 27.2462C24.1214 22.8265 20.1821 20.3412 16.7477 22.3439ZM12.2184 22.6764C12.0303 22.7514 11.97 23.1569 12.0564 23.7683C12.2398 25.0667 11.432 26.0555 10.2972 25.9214C9.31977 25.8061 9.04669 26.4633 9.96205 26.7271C10.8736 26.99 12.0882 26.345 12.5299 25.3638C13.1226 24.047 12.9309 22.3918 12.2184 22.6764ZM17.1583 23.2206C16.306 23.7519 16.214 24.3773 17.0312 24.0864C18.4736 23.5729 18.7475 23.5655 18.7475 24.0417C18.7475 24.3017 18.9191 24.514 19.1289 24.514C19.3387 24.514 19.5103 24.3169 19.5103 24.0759C19.5103 23.0275 21.5604 24.051 22.3174 25.4777C22.9101 26.5942 22.9604 27.4352 22.4344 27.4352C22.2246 27.4352 22.053 27.6323 22.053 27.8733C22.053 28.1143 22.2246 28.3115 22.4344 28.3115C22.9208 28.3115 22.9253 29.1703 22.4433 29.9608C22.2386 30.2967 22.1432 30.6545 22.2314 30.7562C22.8992 31.523 23.663 29.5562 23.5282 27.4168C23.3464 24.5319 21.6426 22.7488 19.0905 22.773C18.4124 22.7795 17.543 22.9807 17.1583 23.2206ZM15.0192 25.8972C13.8617 29.0795 16.095 32.9836 19.0735 32.9847C20.1106 32.9853 21.7987 32.3012 21.7987 31.8805C21.7987 31.3372 21.4539 31.2715 20.762 31.6825C19.8487 32.2249 19.5103 32.2217 19.5103 31.6708C19.5103 31.4298 19.3387 31.2326 19.1289 31.2326C18.9191 31.2326 18.7475 31.4298 18.7475 31.6708C18.7475 32.6982 16.7487 31.5002 15.9493 29.9938C15.3456 28.8569 15.305 28.3115 15.8234 28.3115C16.0332 28.3115 16.2048 28.1143 16.2048 27.8733C16.2048 27.6323 16.0332 27.4352 15.8234 27.4352C15.3479 27.4352 15.3403 26.9357 15.8005 25.9223C15.9961 25.4917 16.0906 25.0647 16.0108 24.9729C15.6828 24.5958 15.395 24.8643 15.0192 25.8972ZM18.7475 26.997C18.7475 28.2627 18.7757 28.3115 19.5103 28.3115C20.0188 28.3115 20.2731 28.1655 20.2731 27.8733C20.2731 27.6323 20.1015 27.4352 19.8917 27.4352C19.6374 27.4352 19.5103 27.1431 19.5103 26.5588C19.5103 25.9746 19.3831 25.6825 19.1289 25.6825C18.8464 25.6825 18.7475 26.0234 18.7475 26.997ZM24.5956 31.2326C24.334 31.7944 24.4024 31.8169 26.3666 31.8169C27.4902 31.8169 28.4096 31.7117 28.4096 31.5832C28.4096 30.9797 27.6738 30.6484 26.3335 30.6484C25.1281 30.6484 24.8194 30.7521 24.5956 31.2326ZM22.9429 33.4325L22.1801 34.1508L25.9305 34.1523C28.8388 34.1535 29.681 34.0685 29.681 33.774C29.681 32.8968 29.0552 32.6932 26.3882 32.7037C23.9221 32.7134 23.6442 32.7721 22.9429 33.4325Z" fill="#160000"/>
</svg>
