<svg width="270" height="201" viewBox="0 0 270 201" fill="none" xmlns="http://www.w3.org/2000/svg">
<path d="M90.575 5.4946C87.3374 9.273 85.9035 12.7025 86.685 14.9249C87.1298 16.0884 87.7839 17.0356 88.2096 17.0286C89.8057 17.0025 92.2985 13.2363 92.991 10.0318C93.387 8.21588 93.8824 5.97257 94.1842 4.90325C94.7808 2.33897 93.0835 2.6861 90.575 5.4946Z" fill="#F2D469"/>
<path d="M169.31 3.67174C169.646 4.7306 170.215 6.95647 170.67 8.75845C171.467 11.9385 174.082 15.621 175.678 15.5948C177.275 15.5686 177.739 11.41 176.422 8.98348C173.566 3.60197 168.179 -0.354357 169.31 3.67174Z" fill="#F2D469"/>
<path d="M102.105 7.54026C100.732 8.20139 98.9509 9.93359 98.1189 11.118C96.7722 13.3753 96.7722 13.3753 101.123 12.5589C103.563 12.0932 106.623 10.4464 108.193 8.82415L111.021 6.01041L107.828 6.06274C106.019 6.0924 103.476 6.77272 102.105 7.54026Z" fill="#F2D469"/>
<path d="M155.438 8.0501C156.954 9.62182 160.173 11.1656 162.521 11.5529C166.576 12.2315 166.787 12.1216 165.907 10.3266C164.153 7.26861 160.288 5.20322 156.351 5.26777L152.52 5.33056L155.438 8.0501Z" fill="#F2D469"/>
<path d="M73.0199 18.874C70.5289 22.7466 70.5237 28.92 72.8926 30.5842C73.8607 31.207 74.5149 32.1542 74.2009 32.4786C73.8886 32.9095 73.9968 33.0142 74.4172 32.688C76.0971 31.2767 77.1908 20.0829 75.8755 17.7628C74.8934 16.2888 74.5759 16.4004 73.0199 18.874Z" fill="#F2D469"/>
<path d="M187.828 16.5661C187.422 17.7435 187.368 20.9376 187.626 23.7007C188.019 28.1646 187.814 28.7002 185.894 28.4124C182.267 27.9396 175.675 28.367 174.515 29.0246C172.619 30.2265 178.191 32.4768 182.874 32.5065C186.386 32.4489 187.443 32.0058 187.841 30.2963C188.137 28.9078 188.873 28.3635 190.051 28.77C191.228 29.1764 192.069 28.524 192.781 26.49C193.595 24.2415 193.356 22.6488 191.699 18.9507C189.271 13.6686 188.734 13.3581 187.828 16.5661Z" fill="#F2D469"/>
<path d="M90.6907 19.0102C87.1094 21.3041 97.377 24.329 102.24 22.3333L104.885 21.3321L101.45 19.5789C97.8027 17.8293 92.9009 17.4839 90.6907 19.0102Z" fill="#F2D469"/>
<path d="M162.318 18.6874L159.26 20.4405L161.83 21.3563C166.756 23.1915 176.919 19.8317 173.264 17.6565C171.005 16.2034 165.798 16.7145 162.318 18.6874Z" fill="#F2D469"/>
<path d="M84.0359 22.0993C82.6804 23.8247 82.7885 23.9293 84.4685 22.518C85.4141 21.7574 86.2514 20.8921 86.248 20.6792C86.234 19.8279 85.3914 20.3739 84.0359 22.0993Z" fill="#F2D469"/>
<path d="M179.384 20.8554C180.467 22.0086 181.547 22.9489 181.866 22.9437C182.185 22.9384 181.531 21.9911 180.448 20.838C179.365 19.6848 178.285 18.7445 177.965 18.7498C177.646 18.755 178.3 19.7023 179.384 20.8554Z" fill="#F2D469"/>
<path d="M79.6988 30.2595C75.0412 31.826 76.1454 34.256 81.4659 34.1687C86.3589 33.9821 92.3824 31.3289 89.6018 30.5229C85.963 29.3053 82.4497 29.2565 79.6988 30.2595Z" fill="#F2D469"/>
<path d="M60.5076 34.726C59.5133 38.9998 60.0139 43.5685 61.7566 45.988C63.9353 49.0389 65.4094 48.0568 65.3326 43.3748C65.2768 39.9697 62.7038 32.3484 61.6397 32.3659C61.3205 32.3711 60.9123 33.4422 60.5076 34.726Z" fill="#F2D469"/>
<path d="M200.984 33.487C198.833 38.6312 198.938 45.0158 201.066 44.9809C204.259 44.9286 205.828 36.8136 203.508 31.6361C202.732 29.733 202.416 29.951 200.984 33.487Z" fill="#F2D469"/>
<path d="M71.199 44.1301C66.6653 46.7589 66.3879 49.3179 70.7507 49.2464C72.7725 49.2133 75.0943 48.0044 77.2957 45.946L80.7566 42.8026L77.0323 42.8636C75.0105 42.8968 72.359 43.4724 71.199 44.1301Z" fill="#F2D469"/>
<path d="M187.535 44.1377C192.18 48.3191 199.315 48.5214 196.48 44.4168C195.17 42.416 191.101 40.8861 187.483 40.9454L183.973 41.1094L187.535 44.1377Z" fill="#F2D469"/>
<path d="M52.7815 56.8844C52.853 61.2472 56.2389 66.5136 58.8992 66.4699C61.453 66.4281 60.5249 61.76 56.9367 57.1356C55.0876 54.7178 53.3519 52.724 53.1391 52.7275C52.9263 52.731 52.7431 54.5434 52.7815 56.8844Z" fill="#F2D469"/>
<path d="M208.459 54.4393C204.712 59.6097 203.941 64.5185 206.803 63.8329C209.985 63.1421 212.672 58.202 212.173 53.7398L211.785 49.595L208.459 54.4393Z" fill="#F2D469"/>
<path d="M67.5221 60.0488C64.5671 61.5874 63.5239 62.8818 63.5553 64.7971C63.5972 67.351 63.7054 67.4556 66.9814 66.0182C70.6812 64.4674 75.4662 57.6834 72.8059 57.727C72.0628 57.8457 69.6311 58.8435 67.5221 60.0488Z" fill="#F2D469"/>
<path d="M192.997 59.1627C194.091 60.9542 196.575 63.1487 198.502 63.8621C201.824 65.1914 201.928 65.0832 201.886 62.5294C201.853 60.5076 200.772 59.461 197.552 57.8108C191.65 54.9273 190.59 55.1575 192.997 59.1627Z" fill="#F2D469"/>
<path d="M60.8216 73.3569C60.86 75.6981 61.0868 76.5459 61.277 75.159C61.4689 73.8785 61.4375 71.963 61.2072 70.9023C60.8722 69.9498 60.6768 71.0175 60.8216 73.3569Z" fill="#F2D469"/>
<path d="M204.367 71.0038C204.394 72.7064 204.618 73.3414 204.92 72.272C205.117 71.3108 205.092 69.821 204.867 69.0795C204.537 68.4463 204.337 69.1947 204.367 71.0038Z" fill="#F2D469"/>
<path d="M50.4404 76.401C52.1202 81.4825 54.5153 84.7428 57.0866 85.765C58.585 86.2727 60.291 86.4576 60.8179 86.1296C62.5012 84.9312 58.6897 79.6718 54.1717 76.7656C49.6554 73.9658 49.6554 73.9658 50.4404 76.401Z" fill="#F2D469"/>
<path d="M67.5867 76.9714C65.1741 79.1397 63.8274 81.397 63.8536 82.9931C63.9025 85.9726 64.6508 86.1732 67.8064 83.8862C70.0149 82.2535 72.9856 75.1799 71.9041 74.1332C71.5796 73.8193 69.6852 75.1276 67.5867 76.9714Z" fill="#F2D469"/>
<path d="M193.539 72.7784C193.581 75.3322 196.869 81.1324 198.802 82.1651C201.914 83.7106 202.232 83.599 202.185 80.7259C202.159 79.1298 200.739 76.9179 198.364 74.9345C194.155 71.3846 193.511 71.0759 193.539 72.7784Z" fill="#F2D469"/>
<path d="M211.025 74.62C207.134 77.4512 203.603 82.8309 204.794 84.0886C205.874 85.0289 211.887 81.7372 212.916 79.5915C213.949 77.6587 215.973 71.2393 215.549 71.3527C215.444 71.4609 213.445 72.8773 211.025 74.62Z" fill="#F2D469"/>
<path d="M72.3991 91.368C69.5801 94.7138 68.4602 97.8189 69.137 100.149C69.4772 101.421 70.1331 102.475 70.6651 102.466C72.6869 102.433 74.8343 97.0757 74.454 93.3567C74.072 89.5312 73.9655 89.5329 72.3991 91.368Z" fill="#F2D469"/>
<path d="M191.717 91.4345C191.787 95.6908 194.206 100.441 196.228 100.408C198.356 100.373 197.065 93.0498 194.356 90.114L191.753 87.1764L191.717 91.4345Z" fill="#F2D469"/>
<path d="M54.402 97.3046C57.4704 102.683 67.4432 107.202 67.3787 103.265C67.3421 101.031 64.0015 98.5309 58.8642 96.8057C53.085 94.8781 53.085 94.8781 54.402 97.3046Z" fill="#F2D469"/>
<path d="M207.307 94.4786C200.008 97.2592 196.476 102.533 201.902 102.444C204.669 102.398 210.345 98.0476 212.1 94.7193C213.232 92.3591 212.807 92.3661 207.307 94.4786Z" fill="#F2D469"/>
<path d="M80.413 106.245C78.2726 112.027 78.1923 113.625 79.7169 115.729C81.02 117.304 81.5555 117.508 82.7069 116.319C84.2768 114.696 84.1617 107.673 82.6284 105.038C81.6428 103.351 81.4334 103.567 80.413 106.245Z" fill="#F2D469"/>
<path d="M183.432 105.514C181.52 112.251 185.468 119.317 187.708 113.107C188.519 110.646 187.708 106.615 185.735 103.134C184.751 101.554 184.437 101.878 183.432 105.514Z" fill="#F2D469"/>
<path d="M74.9966 113.464C75.0001 113.677 75.8654 114.515 76.9418 115.242C78.5607 116.599 78.6654 116.491 77.254 114.811C75.8427 113.131 74.9826 112.613 74.9966 113.464Z" fill="#F2D469"/>
<path d="M189.834 112.966C188.479 114.691 188.587 114.796 190.267 113.384C191.947 111.973 192.465 111.113 191.614 111.127C191.401 111.13 190.563 111.996 189.834 112.966Z" fill="#F2D469"/>
<path d="M66.2338 117.866C70.0104 120.997 75.1407 122.297 77.6701 120.765C80.8327 118.904 75.8873 115.898 68.8556 115.482L62.7816 115.049L66.2338 117.866Z" fill="#F2D469"/>
<path d="M191.358 114.963C187.348 117.051 187.048 118.227 190.043 119.136C193.359 120.146 198.018 118.686 200.63 115.663L203.035 113.069L198.885 113.137C196.651 113.173 193.153 114.082 191.358 114.963Z" fill="#F2D469"/>
<path d="M92.1383 120.315C92.2203 125.316 93.7659 128.697 96.0004 128.66C98.235 128.624 97.9263 122.774 95.6289 118.98C93.0053 114.766 92.0546 115.207 92.1383 120.315Z" fill="#F2D469"/>
<path d="M171.605 117.735C169.433 121.602 169.317 127.458 171.551 127.422C173.786 127.385 175.22 123.956 175.138 118.954C175.054 113.847 174.089 113.437 171.605 117.735Z" fill="#F2D469"/>
<path d="M180.937 122.159L178.956 124.639L181.37 122.577C183.573 120.625 184.198 119.763 183.347 119.777C183.134 119.781 182.087 120.862 180.937 122.159Z" fill="#F2D469"/>
<path d="M85.8116 123.931C85.8151 124.144 86.6804 124.981 87.7568 125.708C89.3757 127.066 89.4804 126.958 88.069 125.278C86.6577 123.598 85.7976 123.079 85.8116 123.931Z" fill="#F2D469"/>
<path d="M106.065 125.728C106.138 130.197 110.063 135.88 113.042 135.831C114.745 135.804 113.271 130.293 110.776 127.46C107.846 123.996 106.025 123.28 106.065 125.728Z" fill="#F2D469"/>
<path d="M156.745 126.706C154.345 129.62 153.052 135.175 154.755 135.148C156.777 135.114 159.289 132.519 160.306 129.628C162.64 122.672 161.021 121.314 156.745 126.706Z" fill="#F2D469"/>
<path d="M81.1384 131.033L77.9584 131.83L81.9234 133.468C86.8549 135.622 90.26 135.566 92.9935 133.499C94.6733 132.088 94.7745 131.767 93.3755 130.832C91.5473 129.691 85.9077 129.784 81.1384 131.033Z" fill="#F2D469"/>
<path d="M173.824 129.726C171.926 130.822 171.928 130.928 174.398 132.271C177.834 134.131 181.025 133.972 185.778 131.766L189.687 129.998L186.483 129.306C181.569 128.216 176.036 128.306 173.824 129.726Z" fill="#F2D469"/>
<path d="M101.623 140.489C97.3984 142.474 96.8751 143.015 98.4817 143.627C103.729 145.564 112.734 142.968 112.678 139.563C112.639 137.222 107.751 137.728 101.623 140.489Z" fill="#F2D469"/>
<path d="M118.528 139.361C120.35 140.076 123.153 142.265 124.779 144.048L127.709 147.512L127.645 143.575C127.577 139.425 127.256 139.324 120.111 138.483C115.312 137.923 115.312 137.923 118.528 139.361Z" fill="#F2D469"/>
<path d="M145.121 138.392C141.088 139.097 140.879 139.313 140.626 143.362L140.376 147.624L142.667 144.5C143.918 142.882 146.433 140.5 148.225 139.406C150.016 138.312 151.066 137.443 150.428 137.454C149.897 137.569 147.457 138.035 145.121 138.392Z" fill="#F2D469"/>
<path d="M155.241 138.865C155.296 142.27 164.381 144.569 169.562 142.462C171.148 141.798 170.607 141.274 166.107 139.432C159.783 136.768 155.202 136.524 155.241 138.865Z" fill="#F2D469"/>
<path d="M3.72983 148.67L25.5441 148.312L25.859 154.87L24.9352 154.885C24.4489 152.831 23.8487 151.502 23.1348 150.898C22.4331 150.281 20.9636 149.99 18.7263 150.027L16.5769 150.062L16.9008 169.821C16.9254 171.317 17.1731 172.243 17.6442 172.6C18.115 172.945 19.137 173.16 20.71 173.248L20.7214 173.945L9.4655 174.13L9.45407 173.432C11.086 173.28 12.0997 172.993 12.4951 172.572C12.8906 172.15 13.0746 171.104 13.0472 169.432L12.7307 150.125L10.5813 150.16C8.4445 150.196 6.9915 150.527 6.22229 151.156C5.46565 151.785 4.9095 153.139 4.55385 155.219L3.61114 155.235L3.72983 148.67ZM39.2216 148.088L39.2334 148.804C37.7518 148.929 36.7944 149.196 36.361 149.606C35.9275 150.003 35.7224 150.911 35.7457 152.332L35.9481 164.681C35.9813 166.705 36.2837 168.278 36.8553 169.4C37.9197 171.444 39.8912 172.443 42.7696 172.396C45.9245 172.344 48.0251 171.254 49.0715 169.124C49.6555 167.933 49.9273 166.105 49.8869 163.642L49.7221 153.592C49.6877 151.493 49.4148 150.184 48.9034 149.664C48.3917 149.132 47.4309 148.808 46.0208 148.693L46.0091 147.977L54.946 147.83L54.9577 148.547C53.4646 148.735 52.4902 149.115 52.0344 149.688C51.591 150.249 51.3858 151.541 51.419 153.565L51.5837 163.614C51.6274 166.279 51.253 168.366 50.4605 169.875C48.9973 172.652 46.1541 174.075 41.9307 174.145C37.7577 174.213 34.8947 172.902 33.3419 170.212C32.501 168.767 32.061 166.851 32.0218 164.463L31.824 152.396C31.8009 150.988 31.5662 150.093 31.1199 149.711C30.6859 149.315 29.739 149.073 28.2791 148.984L28.2674 148.268L39.2216 148.088ZM74.2909 163.147L69.6481 152.587L65.4106 163.293L74.2909 163.147ZM57.7864 173.338L57.775 172.64C58.7661 172.511 59.5015 172.122 59.9812 171.473C60.4735 170.823 61.2996 169.068 62.4597 166.208L70.1998 147.127L70.954 147.115L80.9284 168.847C81.5934 170.295 82.1173 171.191 82.5001 171.537C82.8954 171.87 83.5465 172.092 84.4536 172.203L84.465 172.9L74.642 173.062L74.6305 172.364C75.7601 172.245 76.4872 172.113 76.8118 171.97C77.1361 171.814 77.2936 171.453 77.2843 170.887C77.2813 170.699 77.2129 170.366 77.0794 169.891C76.9459 169.415 76.7617 168.915 76.5268 168.391L74.8633 164.703L64.7575 164.869C63.7933 167.412 63.2154 168.968 63.0235 169.537C62.844 170.093 62.757 170.534 62.7623 170.861C62.7731 171.515 63.0444 171.963 63.5765 172.206C63.9057 172.351 64.5235 172.454 65.4297 172.515L65.4412 173.212L57.7864 173.338ZM86.7055 172.166C88.2991 171.976 89.3177 171.601 89.7611 171.041C90.2043 170.468 90.4092 169.163 90.3759 167.127L90.0968 150.102L89.5587 149.488C88.9821 148.831 88.4915 148.431 88.0868 148.286C87.6945 148.129 87.1022 148.045 86.3099 148.033L86.2981 147.316L92.9159 147.208L108.097 165.554L107.885 152.639C107.85 150.515 107.513 149.137 106.874 148.506C106.453 148.099 105.531 147.843 104.108 147.741L104.096 147.024L113.165 146.876L113.177 147.592C111.709 147.767 110.734 148.141 110.253 148.715C109.772 149.289 109.549 150.587 109.582 152.611L109.915 172.936L109.255 172.947L91.8261 152.054L92.0727 167.099C92.1074 169.211 92.4379 170.582 93.0643 171.213C93.4733 171.621 94.3766 171.889 95.7743 172.017L95.7858 172.715L86.7169 172.864L86.7055 172.166ZM115.957 171.686C117.526 171.548 118.54 171.298 118.999 170.939C119.459 170.567 119.676 169.633 119.651 168.137L119.37 150.961C119.346 149.54 119.099 148.633 118.627 148.238C118.155 147.831 117.133 147.603 115.561 147.553L115.549 146.837L126.975 146.649L126.987 147.366C125.417 147.467 124.402 147.729 123.944 148.151C123.486 148.561 123.268 149.476 123.291 150.897L123.573 168.073C123.598 169.568 123.845 170.495 124.316 170.852C124.787 171.196 125.809 171.412 127.382 171.499L127.394 172.197L115.968 172.384L115.957 171.686ZM142.536 164.179C143.218 165.902 144.007 167.272 144.904 168.289C146.467 170.061 148.386 170.929 150.661 170.891C151.893 170.871 152.949 170.464 153.828 169.67C154.72 168.876 155.155 167.781 155.132 166.386C155.112 165.129 154.641 164.043 153.721 163.128C153.121 162.547 151.862 161.681 149.944 160.53L146.611 158.529C145.608 157.917 144.806 157.295 144.204 156.664C143.091 155.463 142.522 154.127 142.498 152.656C142.466 150.708 143.087 149.076 144.36 147.76C145.633 146.444 147.339 145.769 149.475 145.734C150.355 145.719 151.415 145.922 152.654 146.342C153.905 146.749 154.619 146.951 154.795 146.948C155.272 146.94 155.597 146.821 155.77 146.592C155.954 146.363 156.094 146.04 156.187 145.624L156.979 145.611L157.963 153.817L157.039 153.832C156.37 151.366 155.329 149.655 153.918 148.697C152.519 147.739 151.141 147.272 149.784 147.294C148.728 147.311 147.809 147.641 147.028 148.282C146.259 148.911 145.883 149.778 145.901 150.884C145.917 151.877 146.233 152.721 146.848 153.415C147.463 154.121 148.412 154.854 149.694 155.612L153.122 157.649C155.268 158.922 156.783 160.098 157.668 161.177C158.541 162.269 158.99 163.569 159.015 165.078C159.048 167.101 158.309 168.804 156.798 170.187C155.299 171.57 153.362 172.28 150.986 172.319C149.792 172.339 148.538 172.133 147.223 171.702C145.921 171.271 145.176 171.057 144.987 171.06C144.535 171.067 144.229 171.21 144.07 171.49C143.924 171.769 143.828 172.066 143.783 172.381L142.935 172.395L141.65 164.193L142.536 164.179ZM163.249 170.911C164.667 170.737 165.58 170.471 165.989 170.112C166.41 169.74 166.609 168.826 166.585 167.368L166.304 150.191C166.281 148.821 166.059 147.932 165.638 147.524C165.216 147.104 164.288 146.855 162.853 146.778L162.841 146.061L183.355 145.725L183.578 151.266L182.597 151.282C182.242 149.578 181.734 148.48 181.072 147.988C180.41 147.496 178.948 147.268 176.686 147.305L171.444 147.391C170.879 147.401 170.528 147.501 170.393 147.692C170.27 147.87 170.213 148.21 170.221 148.713L170.362 157.329L176.301 157.232C177.948 157.205 178.994 156.942 179.438 156.445C179.882 155.947 180.231 154.948 180.483 153.448L181.388 153.433L181.534 162.37L180.629 162.385C180.316 160.894 179.929 159.913 179.468 159.443C179.008 158.96 177.96 158.732 176.326 158.759L170.387 158.856L170.544 168.415C170.557 169.182 170.803 169.631 171.283 169.761C171.775 169.891 173.228 169.937 175.641 169.897C178.256 169.854 180.181 169.54 181.416 168.954C182.651 168.355 183.747 166.948 184.704 164.732L185.778 164.714L184.132 171.267L163.26 171.609L163.249 170.911ZM188.013 170.505C189.43 170.331 190.344 170.065 190.753 169.706C191.174 169.334 191.373 168.42 191.349 166.962L191.068 149.785C191.045 148.415 190.823 147.526 190.401 147.118C189.98 146.698 189.051 146.449 187.617 146.372L187.605 145.655L198.522 145.477L198.533 146.193C197.114 146.292 196.163 146.54 195.679 146.938C195.208 147.335 194.983 148.175 195.004 149.457L195.308 168.009C195.315 168.437 195.39 168.775 195.532 169.024C195.687 169.26 196.01 169.406 196.501 169.461C196.791 169.494 197.093 169.514 197.407 169.521C197.734 169.529 198.338 169.525 199.217 169.511C202.649 169.454 204.963 169.134 206.161 168.548C207.358 167.963 208.503 166.498 209.596 164.154L210.577 164.138L208.801 170.862L188.024 171.203L188.013 170.505ZM229.424 160.604L224.781 150.044L220.544 160.75L229.424 160.604ZM212.92 170.795L212.908 170.097C213.899 169.968 214.635 169.578 215.115 168.929C215.607 168.28 216.433 166.525 217.593 163.665L225.333 144.584L226.087 144.572L236.062 166.304C236.727 167.752 237.251 168.648 237.633 168.994C238.029 169.327 238.68 169.549 239.587 169.66L239.598 170.357L229.775 170.518L229.764 169.821C230.893 169.702 231.621 169.57 231.945 169.427C232.269 169.271 232.427 168.91 232.418 168.344C232.415 168.155 232.346 167.823 232.213 167.348C232.079 166.872 231.895 166.372 231.66 165.848L229.997 162.16L219.891 162.326C218.927 164.869 218.349 166.425 218.157 166.994C217.977 167.55 217.89 167.991 217.896 168.318C217.906 168.972 218.178 169.42 218.71 169.663C219.039 169.808 219.657 169.911 220.563 169.972L220.574 170.669L212.92 170.795ZM252.48 144.592L252.492 145.308C251.01 145.433 250.053 145.7 249.619 146.11C249.186 146.507 248.981 147.415 249.004 148.836L249.206 161.185C249.24 163.209 249.542 164.782 250.114 165.904C251.178 167.948 253.15 168.947 256.028 168.9C259.183 168.848 261.284 167.758 262.33 165.628C262.914 164.437 263.186 162.609 263.145 160.146L262.98 150.096C262.946 147.997 262.673 146.688 262.162 146.168C261.65 145.636 260.689 145.312 259.279 145.197L259.267 144.481L268.204 144.334L268.216 145.051C266.723 145.239 265.749 145.619 265.293 146.192C264.849 146.753 264.644 148.045 264.677 150.069L264.842 160.118C264.886 162.783 264.511 164.87 263.719 166.379C262.256 169.156 259.412 170.579 255.189 170.649C251.016 170.717 248.153 169.406 246.6 166.716C245.759 165.271 245.319 163.355 245.28 160.967L245.082 148.9C245.059 147.492 244.825 146.597 244.378 146.215C243.944 145.819 242.997 145.577 241.537 145.488L241.526 144.772L252.48 144.592Z" fill="#741102"/>
<path d="M65.2208 197.463L73.3703 177.354L76.206 177.308L85.0101 197.139L82.5063 197.18L79.9679 191.428L70.0732 191.59L67.7247 197.422L65.2208 197.463ZM70.9139 189.495L79.0589 189.361L74.8267 179.684L70.9139 189.495ZM87.5173 197.098L87.2473 180.627L94.1856 180.513C95.6336 180.489 96.9266 180.83 98.0647 181.536C99.2226 182.221 100.144 183.182 100.828 184.418C101.512 185.654 101.867 187.056 101.892 188.625C101.918 190.193 101.609 191.606 100.966 192.864C100.323 194.122 99.4341 195.122 98.2996 195.865C97.1849 196.587 95.9036 196.96 94.4556 196.984L87.5173 197.098ZM89.7437 194.859L94.3592 194.783C95.3848 194.766 96.2956 194.49 97.0915 193.954C97.9075 193.417 98.5393 192.693 98.987 191.78C99.4347 190.868 99.649 189.828 99.6299 188.662C99.6108 187.495 99.3625 186.463 98.8851 185.566C98.4078 184.668 97.7525 183.965 96.9194 183.456C96.106 182.926 95.1865 182.669 94.1609 182.686L89.5454 182.762L89.7437 194.859ZM109.851 196.732L102.945 180.37L105.418 180.329L111.011 193.816L116.158 180.153L118.631 180.112L112.235 196.693L109.851 196.732ZM128.396 196.609C126.807 196.635 125.374 196.296 124.095 195.593C122.836 194.869 121.834 193.88 121.089 192.625C120.344 191.37 119.959 189.938 119.932 188.329C119.906 186.72 120.244 185.276 120.948 183.997C121.651 182.718 122.62 181.707 123.855 180.962C125.11 180.197 126.532 179.802 128.12 179.776C129.729 179.75 131.163 180.098 132.422 180.822C133.701 181.525 134.713 182.504 135.458 183.759C136.202 185.014 136.588 186.447 136.614 188.055C136.641 189.664 136.302 191.108 135.599 192.387C134.896 193.666 133.917 194.688 132.662 195.453C131.427 196.197 130.005 196.582 128.396 196.609ZM128.36 194.407C129.547 194.387 130.588 194.109 131.485 193.571C132.401 193.013 133.113 192.267 133.621 191.333C134.128 190.379 134.372 189.299 134.352 188.092C134.332 186.866 134.053 185.794 133.515 184.878C132.976 183.941 132.24 183.219 131.307 182.711C130.393 182.183 129.343 181.938 128.156 181.978C126.95 181.998 125.898 182.287 125.002 182.844C124.106 183.382 123.404 184.118 122.896 185.052C122.408 185.985 122.175 187.065 122.195 188.292C122.215 189.498 122.484 190.57 123.002 191.507C123.54 192.424 124.266 193.146 125.18 193.674C126.093 194.182 127.153 194.426 128.36 194.407ZM147.016 196.304C145.468 196.329 144.084 195.99 142.865 195.285C141.667 194.581 140.716 193.601 140.011 192.345C139.327 191.089 138.971 189.646 138.944 188.017C138.917 186.368 139.225 184.915 139.869 183.657C140.532 182.379 141.45 181.368 142.625 180.624C143.82 179.881 145.192 179.496 146.74 179.471C148.55 179.441 150.137 179.908 151.501 180.871C152.884 181.834 153.841 183.146 154.371 184.807L152.018 184.846C151.599 183.807 150.952 183.013 150.078 182.464C149.204 181.915 148.154 181.65 146.927 181.67C145.761 181.689 144.739 181.968 143.863 182.505C143.006 183.022 142.345 183.757 141.877 184.71C141.41 185.643 141.186 186.733 141.207 187.98C141.237 189.85 141.795 191.34 142.879 192.449C143.964 193.557 145.381 194.098 147.13 194.069C148.357 194.049 149.398 193.76 150.254 193.203C151.11 192.646 151.731 191.851 152.116 190.819L154.469 190.78C153.994 192.458 153.08 193.79 151.729 194.778C150.397 195.765 148.826 196.274 147.016 196.304ZM155.832 195.978L162.53 179.393L165.095 179.351L172.333 195.708L169.829 195.749L167.822 191.104L160.19 191.23L158.306 195.938L155.832 195.978ZM161.03 189.104L166.882 189.008L163.842 182.087L161.03 189.104ZM181.417 195.74C179.868 195.765 178.485 195.426 177.266 194.721C176.068 194.017 175.116 193.037 174.412 191.781C173.727 190.525 173.372 189.082 173.345 187.453C173.318 185.804 173.626 184.351 174.269 183.093C174.932 181.815 175.851 180.804 177.026 180.06C178.22 179.317 179.592 178.932 181.141 178.907C182.951 178.877 184.538 179.344 185.901 180.307C187.285 181.27 188.242 182.582 188.772 184.243L186.419 184.282C186 183.243 185.353 182.449 184.479 181.9C183.605 181.351 182.554 181.086 181.328 181.106C180.161 181.126 179.14 181.404 178.264 181.941C177.407 182.458 176.745 183.193 176.278 184.146C175.81 185.079 175.587 186.169 175.607 187.416C175.638 189.287 176.196 190.776 177.28 191.885C178.364 192.994 179.781 193.534 181.531 193.505C182.758 193.485 183.799 193.196 184.655 192.639C185.511 192.082 186.131 191.287 186.517 190.255L188.87 190.216C188.394 191.894 187.481 193.226 186.129 194.214C184.797 195.201 183.227 195.71 181.417 195.74ZM192.133 195.383L191.863 178.912L194.125 178.875L194.395 195.346L192.133 195.383ZM196.871 195.305L203.57 178.72L206.134 178.678L213.373 195.035L210.869 195.076L208.861 190.432L201.229 190.557L199.345 195.265L196.871 195.305ZM202.07 188.431L207.922 188.335L204.881 181.414L202.07 188.431Z" fill="#953F40"/>
<g filter="url(#filter0_dd_301_3)">
<path d="M101.664 39.3975L171.404 38.2543L172.411 59.2196L169.457 59.268C167.902 52.7015 165.984 48.4522 163.701 46.52C161.458 44.5471 156.76 43.6192 149.607 43.7365L142.736 43.8491L143.771 107.019C143.85 111.801 144.642 114.762 146.148 115.903C147.653 117.004 150.92 117.694 155.949 117.973L155.986 120.203L120.001 120.793L119.964 118.563C125.182 118.076 128.422 117.158 129.686 115.811C130.951 114.464 131.539 111.118 131.451 105.774L130.439 44.0507L123.568 44.1633C116.737 44.2753 112.091 45.3362 109.632 47.3461C107.213 49.3553 105.435 53.6853 104.298 60.3362L101.284 60.3856L101.664 39.3975Z" fill="#953F40"/>
</g>
<g filter="url(#filter1_dd_301_3)">
<path fill-rule="evenodd" clip-rule="evenodd" d="M173.069 62.3664C173.97 64.3702 175.069 66.8205 175.512 67.8116C175.955 68.8027 176.946 71.024 177.716 72.7477C178.485 74.4714 179.21 75.9599 179.326 76.0555C179.504 76.2022 179.435 76.3609 178.884 77.076C177.232 79.22 174.691 80.2951 171.136 80.3533C167.586 80.4115 164.991 79.4039 163.251 77.2915C162.706 76.6309 162.636 76.4783 162.807 76.3263C162.919 76.2269 163.504 74.9301 164.107 73.4443C164.71 71.9585 165.524 69.9563 165.914 68.9949C168.52 62.5793 170.156 58.7442 170.288 58.742C170.39 58.7403 170.4 58.8319 170.316 59.0178C170.177 59.325 168.476 63.4818 167.471 65.9703C167.119 66.8442 166.036 69.4815 165.066 71.831C164.095 74.1804 163.303 76.1657 163.304 76.2427C163.305 76.3218 164.964 76.3372 167.117 76.2782L170.927 76.1738L170.784 67.455C170.672 60.5851 170.678 58.7355 170.816 58.7334C170.954 58.7311 171.021 60.5874 171.134 67.4887L171.278 76.247L175.064 76.1849C178.763 76.1243 178.847 76.1158 178.757 75.8143C178.706 75.6445 177.844 73.6876 176.841 71.4655C175.066 67.5324 174.244 65.6938 172.427 61.5983C171.942 60.5052 171.451 59.4123 171.335 59.1695C171.198 58.8828 171.177 58.7274 171.277 58.7258C171.362 58.7244 172.168 60.3626 173.069 62.3664Z" fill="#610000"/>
</g>
<g filter="url(#filter2_d_301_3)">
<g filter="url(#filter3_dd_301_3)">
<path fill-rule="evenodd" clip-rule="evenodd" d="M105.196 63.4794C106.097 65.4832 107.196 67.9335 107.638 68.9246C108.081 69.9158 109.073 72.137 109.842 73.8607C110.612 75.5844 111.336 77.0729 111.452 77.1686C111.63 77.3153 111.562 77.4739 111.011 78.189C109.359 80.333 106.817 81.4081 103.262 81.4664C99.7126 81.5246 97.1175 80.5169 95.3769 78.4046C94.8325 77.7439 94.7624 77.5913 94.9333 77.4394C95.045 77.34 95.63 76.0431 96.2334 74.5574C96.8369 73.0716 97.65 71.0694 98.0405 70.108C100.646 63.6923 102.282 59.8572 102.414 59.8551C102.517 59.8534 102.526 59.9449 102.442 60.1308C102.303 60.4381 100.603 64.5948 99.5978 67.0833C99.2449 67.9573 98.1622 70.5945 97.1921 72.9441C96.2218 75.2934 95.429 77.2787 95.4302 77.3558C95.4315 77.4348 97.0904 77.4502 99.243 77.3913L103.054 77.2868L102.911 68.568C102.798 61.6981 102.805 59.8485 102.942 59.8464C103.08 59.8441 103.148 61.7004 103.261 68.6018L103.404 77.36L107.19 77.2979C110.889 77.2373 110.974 77.2288 110.883 76.9274C110.833 76.7576 109.971 74.8007 108.968 72.5785C107.193 68.6454 106.37 66.8069 104.554 62.7113C104.069 61.6183 103.577 60.5253 103.461 60.2826C103.324 59.9958 103.304 59.8405 103.404 59.8388C103.488 59.8375 104.295 61.4756 105.196 63.4794Z" fill="#610000"/>
</g>
</g>
<path fill-rule="evenodd" clip-rule="evenodd" d="M29.4526 189.475C27.654 190.048 41.462 190.358 55.3163 190.054C63.1333 189.884 65.9374 189.693 63.902 189.471C59.5536 188.998 30.939 189 29.4526 189.475Z" fill="#741102"/>
<path fill-rule="evenodd" clip-rule="evenodd" d="M212.308 186.737C210.51 187.31 224.318 187.62 238.172 187.317C245.989 187.146 248.793 186.955 246.758 186.733C242.409 186.26 213.795 186.262 212.308 186.737Z" fill="#741102"/>
<path fill-rule="evenodd" clip-rule="evenodd" d="M154.176 44.5477C153.26 46.7232 151.502 46.9125 147.04 45.3159C145.159 44.6427 143.398 44.0957 143.128 44.1002C142.858 44.1046 142.65 44.8961 142.665 45.8594C142.692 47.4542 142.919 47.72 145.212 48.8351C150.091 51.2078 153.031 55.2498 154.527 61.6409C154.94 63.4049 155.463 64.5174 155.875 64.5106C156.418 64.5017 156.515 62.3929 156.372 53.6898C156.231 45.0732 156.06 42.8823 155.531 42.891C155.167 42.897 154.557 43.6422 154.176 44.5477ZM127.421 48.9699C121.841 55.7088 122.828 65.6015 129.742 72.2413C132.977 75.348 136.061 77.2956 144.952 81.845C149.898 84.3755 152.993 86.343 155.37 88.468C166.295 98.2325 167.953 113.142 159.19 122.823C155.204 127.227 150.501 129.548 143.415 130.609C129.503 132.694 117.311 124.191 114.232 110.258C112.748 103.542 114.404 96.7713 118.794 91.6169C121.038 88.9816 125.651 86.3522 129.014 85.7916C131.168 85.4324 131.243 85.3593 131.215 83.6473L131.186 81.8745L128.102 82.2052C119.387 83.1397 110.215 91.6615 107.861 101.012C107.067 104.162 107.308 110.596 108.346 113.979C111.94 125.699 121.683 133.628 134.538 135.293C142.106 136.273 149.419 134.976 156.405 131.414C163.07 128.017 168.431 121.628 170.455 114.672C171.954 109.521 171.644 101.9 169.721 96.656C166.654 88.2881 160.558 81.6671 150.903 76.2164C141.18 70.7266 137.489 68.2273 134.695 65.2385C131.001 61.2898 130.31 59.1356 130.521 52.2277C130.713 45.9165 130.304 45.4867 127.421 48.9699ZM143.328 91.2886C143.25 97.9892 142.858 99.0291 139.506 101.41C135.784 104.055 130.794 101.596 129.308 96.3856C128.954 95.1427 128.484 94.1285 128.265 94.1321C128.046 94.1357 127.907 96.6274 127.957 99.6692C128.044 104.993 128.443 106.225 129.465 104.327C129.897 103.524 130.147 103.52 133.401 104.249C138.609 105.416 142.651 104.365 145.675 101.059C147.43 99.1413 148.038 97.3148 147.972 94.1535C147.911 91.1853 146.608 88.0997 144.697 86.3975L143.397 85.2405L143.328 91.2886Z" fill="#610000"/>
<defs>
<filter id="filter0_dd_301_3" x="97.854" y="37.0088" width="78.6382" height="87.7791" filterUnits="userSpaceOnUse" color-interpolation-filters="sRGB">
<feFlood flood-opacity="0" result="BackgroundImageFix"/>
<feColorMatrix in="SourceAlpha" type="matrix" values="0 0 0 0 0 0 0 0 0 0 0 0 0 0 0 0 0 0 127 0" result="hardAlpha"/>
<feOffset dx="0.617313" dy="1.23463"/>
<feGaussianBlur stdDeviation="1.23463"/>
<feComposite in2="hardAlpha" operator="out"/>
<feColorMatrix type="matrix" values="0 0 0 0 0 0 0 0 0 0 0 0 0 0 0 0 0 0 0.25 0"/>
<feBlend mode="normal" in2="BackgroundImageFix" result="effect1_dropShadow_301_3"/>
<feColorMatrix in="SourceAlpha" type="matrix" values="0 0 0 0 0 0 0 0 0 0 0 0 0 0 0 0 0 0 127 0" result="hardAlpha"/>
<feOffset dx="-0.617313" dy="1.23463"/>
<feGaussianBlur stdDeviation="1.23463"/>
<feComposite in2="hardAlpha" operator="out"/>
<feColorMatrix type="matrix" values="0 0 0 0 0 0 0 0 0 0 0 0 0 0 0 0 0 0 0.25 0"/>
<feBlend mode="normal" in2="effect1_dropShadow_301_3" result="effect2_dropShadow_301_3"/>
<feBlend mode="normal" in="SourceGraphic" in2="effect2_dropShadow_301_3" result="shape"/>
</filter>
<filter id="filter1_dd_301_3" x="160.21" y="57.7201" width="21.7172" height="25.6526" filterUnits="userSpaceOnUse" color-interpolation-filters="sRGB">
<feFlood flood-opacity="0" result="BackgroundImageFix"/>
<feColorMatrix in="SourceAlpha" type="matrix" values="0 0 0 0 0 0 0 0 0 0 0 0 0 0 0 0 0 0 127 0" result="hardAlpha"/>
<feOffset dx="0.502844" dy="1.00569"/>
<feGaussianBlur stdDeviation="1.00569"/>
<feComposite in2="hardAlpha" operator="out"/>
<feColorMatrix type="matrix" values="0 0 0 0 0 0 0 0 0 0 0 0 0 0 0 0 0 0 0.25 0"/>
<feBlend mode="normal" in2="BackgroundImageFix" result="effect1_dropShadow_301_3"/>
<feColorMatrix in="SourceAlpha" type="matrix" values="0 0 0 0 0 0 0 0 0 0 0 0 0 0 0 0 0 0 127 0" result="hardAlpha"/>
<feOffset dx="-0.502844" dy="1.00569"/>
<feGaussianBlur stdDeviation="1.00569"/>
<feComposite in2="hardAlpha" operator="out"/>
<feColorMatrix type="matrix" values="0 0 0 0 0 0 0 0 0 0 0 0 0 0 0 0 0 0 0.25 0"/>
<feBlend mode="normal" in2="effect1_dropShadow_301_3" result="effect2_dropShadow_301_3"/>
<feBlend mode="normal" in="SourceGraphic" in2="effect2_dropShadow_301_3" result="shape"/>
</filter>
<filter id="filter2_d_301_3" x="93.3423" y="58.8332" width="20.7115" height="25.6526" filterUnits="userSpaceOnUse" color-interpolation-filters="sRGB">
<feFlood flood-opacity="0" result="BackgroundImageFix"/>
<feColorMatrix in="SourceAlpha" type="matrix" values="0 0 0 0 0 0 0 0 0 0 0 0 0 0 0 0 0 0 127 0" result="hardAlpha"/>
<feOffset dx="0.502844" dy="1.00569"/>
<feGaussianBlur stdDeviation="1.00569"/>
<feComposite in2="hardAlpha" operator="out"/>
<feColorMatrix type="matrix" values="0 0 0 0 0 0 0 0 0 0 0 0 0 0 0 0 0 0 0.25 0"/>
<feBlend mode="normal" in2="BackgroundImageFix" result="effect1_dropShadow_301_3"/>
<feBlend mode="normal" in="SourceGraphic" in2="effect1_dropShadow_301_3" result="shape"/>
</filter>
<filter id="filter3_dd_301_3" x="92.3366" y="58.8332" width="21.7172" height="26.6583" filterUnits="userSpaceOnUse" color-interpolation-filters="sRGB">
<feFlood flood-opacity="0" result="BackgroundImageFix"/>
<feColorMatrix in="SourceAlpha" type="matrix" values="0 0 0 0 0 0 0 0 0 0 0 0 0 0 0 0 0 0 127 0" result="hardAlpha"/>
<feOffset dx="0.502844" dy="2.01138"/>
<feGaussianBlur stdDeviation="1.00569"/>
<feComposite in2="hardAlpha" operator="out"/>
<feColorMatrix type="matrix" values="0 0 0 0 0 0 0 0 0 0 0 0 0 0 0 0 0 0 0.25 0"/>
<feBlend mode="normal" in2="BackgroundImageFix" result="effect1_dropShadow_301_3"/>
<feColorMatrix in="SourceAlpha" type="matrix" values="0 0 0 0 0 0 0 0 0 0 0 0 0 0 0 0 0 0 127 0" result="hardAlpha"/>
<feOffset dx="-0.502844" dy="1.00569"/>
<feGaussianBlur stdDeviation="1.00569"/>
<feComposite in2="hardAlpha" operator="out"/>
<feColorMatrix type="matrix" values="0 0 0 0 0 0 0 0 0 0 0 0 0 0 0 0 0 0 0.25 0"/>
<feBlend mode="normal" in2="effect1_dropShadow_301_3" result="effect2_dropShadow_301_3"/>
<feBlend mode="normal" in="SourceGraphic" in2="effect2_dropShadow_301_3" result="shape"/>
</filter>
</defs>
</svg>
