<svg width="118" height="130" viewBox="0 0 118 130" fill="none" xmlns="http://www.w3.org/2000/svg">
<path d="M69.6143 17.2318V7.89657H73.0954V0.90593H44.5967V7.89657H48.0723V17.3017C34.7785 19.7982 22.7911 26.7385 14.1712 36.9293C5.55132 47.12 0.8376 59.9244 0.840578 73.1407C0.840578 104.556 26.9323 129.964 59.0443 129.964C91.2225 129.964 117.248 104.491 117.248 73.1407C117.248 45.2535 96.7085 22.1306 69.6143 17.2318ZM60.6472 102.335V99.0706H57.2377V102.335C42.0519 101.485 29.9452 89.5365 29.141 74.711H32.4844V71.3769H29.141C29.5947 64.2532 32.7024 57.5376 37.878 52.4966C43.0537 47.4555 49.9398 44.4374 57.2377 44.0113V47.2754H60.6527V44.0113C68.0084 44.3936 74.9614 47.4102 80.1817 52.4838C85.402 57.5574 88.523 64.332 88.9476 71.5114H85.6042V74.84H88.9476C88.5109 82.0157 85.3851 88.7837 80.166 93.8542C74.9469 98.9248 67.9993 101.943 60.6472 102.335ZM73.0954 60.8641L70.9473 58.7723L60.0468 68.0483C59.4908 67.841 58.9014 67.7317 58.3063 67.7257C56.8716 67.7469 55.5039 68.3216 54.5018 69.3241C53.4997 70.3266 52.9447 71.6755 52.9579 73.0762C52.9579 76.0177 55.3649 78.4321 58.3063 78.4321C61.2531 78.4321 63.6601 76.0123 63.6601 73.0762C63.6742 72.5197 63.5827 71.9655 63.3902 71.4415L73.0954 60.8641Z" fill="#310202"/>
</svg>
