<svg width="120" height="131" viewBox="0 0 120 131" fill="none" xmlns="http://www.w3.org/2000/svg">
<path d="M59.7325 0.234695C76.1265 0.234695 89.405 13.1982 89.405 29.2034C89.405 45.2085 76.1265 58.172 59.7325 58.172C43.3384 58.172 30.06 45.2085 30.06 29.2034C30.06 13.1982 43.3384 0.234695 59.7325 0.234695ZM89.405 76.5671C89.405 84.2438 87.3279 102.132 73.1593 122.12L67.1506 87.1407L74.1236 73.5254C69.5244 73.0184 64.7026 72.6563 59.7325 72.6563C54.7623 72.6563 49.9405 73.0184 45.3413 73.5254L52.3143 87.1407L46.3056 122.12C32.137 102.132 30.06 84.2438 30.06 76.5671C12.3306 81.6366 0.387451 90.7617 0.387451 101.625V130.594H119.077V101.625C119.077 90.7617 107.208 81.6366 89.405 76.5671Z" fill="#310202"/>
</svg>
