<svg width="153" height="123" viewBox="0 0 153 123" fill="none" xmlns="http://www.w3.org/2000/svg">
<path d="M139.697 18.9909C145.888 14.1704 150.522 18.1381 150.522 23.2182V99.3085C150.522 105.724 145.888 108.356 139.697 103.536L85.5345 61.2634L139.697 18.9909ZM36.9555 1.93362V120.593V1.93362ZM2.39187 35.8999H85.5345V86.6268H2.39187M2.39187 35.8999L36.9555 1.93362H107.222C109.994 2.21648 112.582 3.4208 114.553 5.34479C116.524 7.26878 117.757 9.79555 118.047 12.5017V109.877C117.79 112.609 116.571 115.171 114.598 117.125C112.624 119.079 110.018 120.304 107.222 120.593H13.2168C11.7765 120.614 10.3469 120.349 9.01397 119.816C7.68109 119.283 6.47255 118.492 5.46114 117.491C4.44973 116.49 3.65639 115.299 3.1289 113.99C2.60142 112.682 2.35071 111.282 2.39187 109.877V35.8999Z" fill="#310202"/>
<path d="M36.9555 1.93362V120.593M2.39187 35.8999H85.5345V86.6268H2.39187M139.697 18.9909C145.888 14.1704 150.522 18.1381 150.522 23.2182V99.3085C150.522 105.724 145.888 108.356 139.697 103.536L85.5345 61.2634L139.697 18.9909ZM2.39187 35.8999L36.9555 1.93362H107.222C109.994 2.21648 112.582 3.4208 114.553 5.34479C116.524 7.26878 117.757 9.79555 118.047 12.5017V109.877C117.79 112.609 116.571 115.171 114.598 117.125C112.624 119.079 110.018 120.304 107.222 120.593H13.2167C11.7765 120.614 10.3469 120.349 9.01397 119.816C7.68109 119.283 6.47255 118.492 5.46114 117.491C4.44973 116.49 3.65639 115.299 3.1289 113.99C2.60142 112.682 2.35071 111.282 2.39187 109.877V35.8999Z" stroke="white" stroke-width="3.7982" stroke-linecap="round" stroke-linejoin="round"/>
</svg>
