<svg width="80" height="77" viewBox="0 0 80 77" fill="none" xmlns="http://www.w3.org/2000/svg">
<path d="M26.3973 6.39795H53.9585C64.458 6.39795 72.9888 14.7155 72.9888 24.9525V51.8247C72.9888 56.7457 70.9838 61.4651 67.415 64.9448C63.8461 68.4244 59.0056 70.3793 53.9585 70.3793H26.3973C15.8978 70.3793 7.36694 62.0617 7.36694 51.8247V24.9525C7.36694 20.0316 9.37192 15.3121 12.9408 11.8325C16.5097 8.3528 21.3501 6.39795 26.3973 6.39795ZM25.7411 12.7961C22.6083 12.7961 19.6039 14.0094 17.3888 16.1692C15.1736 18.329 13.9291 21.2583 13.9291 24.3127V52.4645C13.9291 58.8306 19.2117 63.9811 25.7411 63.9811H54.6147C57.7474 63.9811 60.7518 62.7678 62.967 60.608C65.1822 58.4482 66.4266 55.5189 66.4266 52.4645V24.3127C66.4266 17.9466 61.1441 12.7961 54.6147 12.7961H25.7411ZM57.4036 17.5947C58.4914 17.5947 59.5346 18.016 60.3037 18.7659C61.0729 19.5158 61.505 20.533 61.505 21.5935C61.505 22.6541 61.0729 23.6712 60.3037 24.4211C59.5346 25.171 58.4914 25.5923 57.4036 25.5923C56.3159 25.5923 55.2727 25.171 54.5035 24.4211C53.7344 23.6712 53.3023 22.6541 53.3023 21.5935C53.3023 20.533 53.7344 19.5158 54.5035 18.7659C55.2727 18.016 56.3159 17.5947 57.4036 17.5947ZM40.1779 22.3933C44.5289 22.3933 48.7017 24.0785 51.7783 27.0782C54.8549 30.0779 56.5833 34.1464 56.5833 38.3886C56.5833 42.6308 54.8549 46.6993 51.7783 49.699C48.7017 52.6987 44.5289 54.3839 40.1779 54.3839C35.8269 54.3839 31.6541 52.6987 28.5775 49.699C25.5008 46.6993 23.7724 42.6308 23.7724 38.3886C23.7724 34.1464 25.5008 30.0779 28.5775 27.0782C31.6541 24.0785 35.8269 22.3933 40.1779 22.3933ZM40.1779 28.7914C37.5673 28.7914 35.0636 29.8025 33.2176 31.6024C31.3717 33.4022 30.3346 35.8433 30.3346 38.3886C30.3346 40.9339 31.3717 43.375 33.2176 45.1749C35.0636 46.9747 37.5673 47.9858 40.1779 47.9858C42.7885 47.9858 45.2922 46.9747 47.1381 45.1749C48.9841 43.375 50.0212 40.9339 50.0212 38.3886C50.0212 35.8433 48.9841 33.4022 47.1381 31.6024C45.2922 29.8025 42.7885 28.7914 40.1779 28.7914Z" fill="#DBCCCC"/>
</svg>
