<svg width="42" height="42" viewBox="0 0 42 42" fill="none" xmlns="http://www.w3.org/2000/svg">
<path d="M29.2645 24.6053C28.8174 24.3756 26.5902 23.2846 26.176 23.1369C25.7617 22.9811 25.4582 22.9072 25.1588 23.3666C24.8553 23.8219 23.9939 24.835 23.7232 25.1426C23.4607 25.4461 23.1941 25.483 22.7471 25.2574C20.0893 23.9285 18.3461 22.8867 16.5947 19.8803C16.1312 19.0805 17.0582 19.1379 17.9236 17.4111C18.0713 17.1076 17.9975 16.8492 17.8826 16.6195C17.7678 16.3898 16.8654 14.1668 16.4881 13.2604C16.123 12.3785 15.7457 12.5016 15.4709 12.4852C15.2084 12.4687 14.909 12.4688 14.6055 12.4688C14.302 12.4688 13.8139 12.5836 13.3996 13.0307C12.9854 13.4859 11.8164 14.5811 11.8164 16.8041C11.8164 19.0271 13.4365 21.1805 13.658 21.484C13.8877 21.7875 16.8449 26.3484 21.3854 28.3131C24.2564 29.5518 25.3803 29.6584 26.8158 29.4451C27.6895 29.3139 29.49 28.3541 29.8633 27.2918C30.2365 26.2336 30.2365 25.3272 30.1258 25.1385C30.015 24.9375 29.7115 24.8227 29.2645 24.6053Z" fill="white"/>
<path d="M37.9479 13.8797C37.0209 11.6771 35.692 9.7002 33.9981 8.00215C32.3041 6.3082 30.3272 4.9752 28.1205 4.05234C25.8647 3.10488 23.4694 2.625 21.0002 2.625H20.9182C18.4327 2.6373 16.025 3.12949 13.761 4.09746C11.5748 5.03262 9.6143 6.36152 7.93676 8.05547C6.25922 9.74941 4.94262 11.7182 4.03207 13.9125C3.08871 16.1848 2.61293 18.6006 2.62523 21.0861C2.63754 23.9326 3.3184 26.7586 4.59398 29.2852V35.5195C4.59398 36.5613 5.4389 37.4062 6.4807 37.4062H12.7192C15.2457 38.6818 18.0717 39.3627 20.9182 39.375H21.0043C23.4612 39.375 25.8442 38.8992 28.0877 37.9682C30.2821 37.0535 32.2549 35.741 33.9448 34.0635C35.6387 32.3859 36.9717 30.4254 37.9028 28.2393C38.8707 25.9752 39.3629 23.5676 39.3752 21.082C39.3875 18.5842 38.9036 16.1602 37.9479 13.8797ZM31.7504 31.8445C28.8752 34.691 25.0608 36.2578 21.0002 36.2578H20.9305C18.4573 36.2455 16.0004 35.6303 13.8307 34.4736L13.4862 34.2891H7.71117V28.5141L7.5266 28.1695C6.36996 25.9998 5.75473 23.543 5.74242 21.0697C5.72601 16.9805 7.28871 13.1414 10.1557 10.2498C13.0186 7.3582 16.8453 5.75859 20.9346 5.74219H21.0043C23.0551 5.74219 25.0444 6.14004 26.9188 6.92754C28.7481 7.69453 30.3887 8.79785 31.7996 10.2088C33.2065 11.6156 34.3139 13.2604 35.0809 15.0896C35.8766 16.9846 36.2745 18.9943 36.2662 21.0697C36.2416 25.1549 34.6379 28.9816 31.7504 31.8445Z" fill="white"/>
</svg>
